<?xml version="1.0" encoding="UTF-8"?>
<svg width="240px" height="502px" viewBox="0 0 240 502" version="1.1" xmlns="http://www.w3.org/2000/svg" xmlns:xlink="http://www.w3.org/1999/xlink">
    <!-- Generator: Sketch 52.2 (67145) - http://www.bohemiancoding.com/sketch -->
    <title>phone-halsa-small-right-bottom</title>
    <desc>Created with Sketch.</desc>
    <defs>
        <path d="M22.893497,0 L216.584531,0 C229.22826,-2.32029821e-15 239.478028,10.239542 239.478028,22.8706571 L239.478028,478.177292 C239.478028,490.808407 229.22826,501.047949 216.584531,501.047949 L22.893497,501.047949 C10.2497677,501.047949 1.54841026e-15,490.808407 0,478.177292 L0,22.8706571 C-1.54841026e-15,10.239542 10.2497677,2.32029821e-15 22.893497,0 Z" id="path-1"></path>
        <filter x="-3.3%" y="-1.6%" width="106.7%" height="103.2%" filterUnits="objectBoundingBox" id="filter-2">
            <feGaussianBlur stdDeviation="7" in="SourceAlpha" result="shadowBlurInner1"></feGaussianBlur>
            <feOffset dx="0" dy="-2" in="shadowBlurInner1" result="shadowOffsetInner1"></feOffset>
            <feComposite in="shadowOffsetInner1" in2="SourceAlpha" operator="arithmetic" k2="-1" k3="1" result="shadowInnerInner1"></feComposite>
            <feColorMatrix values="0 0 0 0 0.42745098   0 0 0 0 0.42745098   0 0 0 0 0.541176471  0 0 0 0.16 0" type="matrix" in="shadowInnerInner1"></feColorMatrix>
        </filter>
        <path d="M12.7346489,0.598049016 L207.880297,0.598049016 C214.512664,0.598049016 219.88926,5.96681122 219.88926,12.589515 L219.88926,425.695519 C219.88926,432.318223 214.512664,437.686985 207.880297,437.686985 L12.7346489,437.686985 C6.1022818,437.686985 0.725685944,432.318223 0.725685944,425.695519 L0.725685944,12.589515 C0.725685944,5.96681122 6.1022818,0.598049016 12.7346489,0.598049016 Z" id="path-3"></path>
        <path d="M7.77798848,-1.20241846e-15 L191.230939,3.14240044e-16 C193.935515,-1.82582515e-16 194.91626,0.28160252 195.905012,0.810393185 C196.893765,1.33918385 197.669744,2.11516266 198.198535,3.10391523 C198.727325,4.09266781 199.008928,5.07341244 199.008928,7.77798848 L199.008928,22.5587383 C199.008928,25.2633143 198.727325,26.244059 198.198535,27.2328115 C197.669744,28.2215641 196.893765,28.9975429 195.905012,29.5263336 C194.91626,30.0551243 193.935515,30.3367268 191.230939,30.3367268 L7.77798848,30.3367268 C5.07341244,30.3367268 4.09266781,30.0551243 3.10391523,29.5263336 C2.11516266,28.9975429 1.33918385,28.2215641 0.810393185,27.2328115 C0.28160252,26.244059 1.07798627e-14,25.2633143 1.04486477e-14,22.5587383 L2.09493363e-16,7.77798848 C-1.21721677e-16,5.07341244 0.28160252,4.09266781 0.810393185,3.10391523 C1.33918385,2.11516266 2.11516266,1.33918385 3.10391523,0.810393185 C4.09266781,0.28160252 5.07341244,-7.05595905e-16 7.77798848,-1.20241846e-15 Z" id="path-5"></path>
        <filter x="-2.0%" y="-6.6%" width="104.0%" height="126.4%" filterUnits="objectBoundingBox" id="filter-6">
            <feOffset dx="0" dy="2" in="SourceAlpha" result="shadowOffsetOuter1"></feOffset>
            <feGaussianBlur stdDeviation="1" in="shadowOffsetOuter1" result="shadowBlurOuter1"></feGaussianBlur>
            <feColorMatrix values="0 0 0 0 0.188235294   0 0 0 0 0.141176471   0 0 0 0 0.443137255  0 0 0 0.14 0" type="matrix" in="shadowBlurOuter1"></feColorMatrix>
        </filter>
        <path d="M7.77798848,-1.20241846e-15 L191.230939,3.14240044e-16 C193.935515,-1.82582515e-16 194.91626,0.28160252 195.905012,0.810393185 C196.893765,1.33918385 197.669744,2.11516266 198.198535,3.10391523 C198.727325,4.09266781 199.008928,5.07341244 199.008928,7.77798848 L199.008928,22.5587383 C199.008928,25.2633143 198.727325,26.244059 198.198535,27.2328115 C197.669744,28.2215641 196.893765,28.9975429 195.905012,29.5263336 C194.91626,30.0551243 193.935515,30.3367268 191.230939,30.3367268 L7.77798848,30.3367268 C5.07341244,30.3367268 4.09266781,30.0551243 3.10391523,29.5263336 C2.11516266,28.9975429 1.33918385,28.2215641 0.810393185,27.2328115 C0.28160252,26.244059 1.07798627e-14,25.2633143 1.04486477e-14,22.5587383 L2.09493363e-16,7.77798848 C-1.21721677e-16,5.07341244 0.28160252,4.09266781 0.810393185,3.10391523 C1.33918385,2.11516266 2.11516266,1.33918385 3.10391523,0.810393185 C4.09266781,0.28160252 5.07341244,-7.05595905e-16 7.77798848,-1.20241846e-15 Z" id="path-7"></path>
        <filter x="-2.0%" y="-6.6%" width="104.0%" height="126.4%" filterUnits="objectBoundingBox" id="filter-8">
            <feOffset dx="0" dy="2" in="SourceAlpha" result="shadowOffsetOuter1"></feOffset>
            <feGaussianBlur stdDeviation="1" in="shadowOffsetOuter1" result="shadowBlurOuter1"></feGaussianBlur>
            <feColorMatrix values="0 0 0 0 0.188235294   0 0 0 0 0.141176471   0 0 0 0 0.443137255  0 0 0 0.14 0" type="matrix" in="shadowBlurOuter1"></feColorMatrix>
        </filter>
        <path d="M7.77798848,-1.20241846e-15 L191.230939,3.14240044e-16 C193.935515,-1.82582515e-16 194.91626,0.28160252 195.905012,0.810393185 C196.893765,1.33918385 197.669744,2.11516266 198.198535,3.10391523 C198.727325,4.09266781 199.008928,5.07341244 199.008928,7.77798848 L199.008928,22.5587383 C199.008928,25.2633143 198.727325,26.244059 198.198535,27.2328115 C197.669744,28.2215641 196.893765,28.9975429 195.905012,29.5263336 C194.91626,30.0551243 193.935515,30.3367268 191.230939,30.3367268 L7.77798848,30.3367268 C5.07341244,30.3367268 4.09266781,30.0551243 3.10391523,29.5263336 C2.11516266,28.9975429 1.33918385,28.2215641 0.810393185,27.2328115 C0.28160252,26.244059 1.07798627e-14,25.2633143 1.04486477e-14,22.5587383 L2.09493363e-16,7.77798848 C-1.21721677e-16,5.07341244 0.28160252,4.09266781 0.810393185,3.10391523 C1.33918385,2.11516266 2.11516266,1.33918385 3.10391523,0.810393185 C4.09266781,0.28160252 5.07341244,-7.05595905e-16 7.77798848,-1.20241846e-15 Z" id="path-9"></path>
        <filter x="-2.0%" y="-6.6%" width="104.0%" height="126.4%" filterUnits="objectBoundingBox" id="filter-10">
            <feOffset dx="0" dy="2" in="SourceAlpha" result="shadowOffsetOuter1"></feOffset>
            <feGaussianBlur stdDeviation="1" in="shadowOffsetOuter1" result="shadowBlurOuter1"></feGaussianBlur>
            <feColorMatrix values="0 0 0 0 0.188235294   0 0 0 0 0.141176471   0 0 0 0 0.443137255  0 0 0 0.14 0" type="matrix" in="shadowBlurOuter1"></feColorMatrix>
        </filter>
        <path d="M7.77798848,-1.20241846e-15 L191.230939,3.14240044e-16 C193.935515,-1.82582515e-16 194.91626,0.28160252 195.905012,0.810393185 C196.893765,1.33918385 197.669744,2.11516266 198.198535,3.10391523 C198.727325,4.09266781 199.008928,5.07341244 199.008928,7.77798848 L199.008928,22.5587383 C199.008928,25.2633143 198.727325,26.244059 198.198535,27.2328115 C197.669744,28.2215641 196.893765,28.9975429 195.905012,29.5263336 C194.91626,30.0551243 193.935515,30.3367268 191.230939,30.3367268 L7.77798848,30.3367268 C5.07341244,30.3367268 4.09266781,30.0551243 3.10391523,29.5263336 C2.11516266,28.9975429 1.33918385,28.2215641 0.810393185,27.2328115 C0.28160252,26.244059 1.07798627e-14,25.2633143 1.04486477e-14,22.5587383 L2.09493363e-16,7.77798848 C-1.21721677e-16,5.07341244 0.28160252,4.09266781 0.810393185,3.10391523 C1.33918385,2.11516266 2.11516266,1.33918385 3.10391523,0.810393185 C4.09266781,0.28160252 5.07341244,-7.05595905e-16 7.77798848,-1.20241846e-15 Z" id="path-11"></path>
        <filter x="-2.0%" y="-6.6%" width="104.0%" height="126.4%" filterUnits="objectBoundingBox" id="filter-12">
            <feOffset dx="0" dy="2" in="SourceAlpha" result="shadowOffsetOuter1"></feOffset>
            <feGaussianBlur stdDeviation="1" in="shadowOffsetOuter1" result="shadowBlurOuter1"></feGaussianBlur>
            <feColorMatrix values="0 0 0 0 0.188235294   0 0 0 0 0.141176471   0 0 0 0 0.443137255  0 0 0 0.14 0" type="matrix" in="shadowBlurOuter1"></feColorMatrix>
        </filter>
        <rect id="path-13" x="0" y="0" width="199.008928" height="26.6963196" rx="3.64040721"></rect>
        <filter x="-2.0%" y="-15.0%" width="104.0%" height="137.5%" filterUnits="objectBoundingBox" id="filter-14">
            <feOffset dx="0" dy="2" in="SourceAlpha" result="shadowOffsetOuter1"></feOffset>
            <feGaussianBlur stdDeviation="1" in="shadowOffsetOuter1" result="shadowBlurOuter1"></feGaussianBlur>
            <feColorMatrix values="0 0 0 0 0.443137255   0 0 0 0 0.141176471   0 0 0 0 0.240154785  0 0 0 0.16 0" type="matrix" in="shadowBlurOuter1" result="shadowMatrixOuter1"></feColorMatrix>
            <feOffset dx="0" dy="0" in="SourceAlpha" result="shadowOffsetOuter2"></feOffset>
            <feGaussianBlur stdDeviation="1" in="shadowOffsetOuter2" result="shadowBlurOuter2"></feGaussianBlur>
            <feColorMatrix values="0 0 0 0 0.443137255   0 0 0 0 0.141176471   0 0 0 0 0.239215686  0 0 0 0.08 0" type="matrix" in="shadowBlurOuter2" result="shadowMatrixOuter2"></feColorMatrix>
            <feMerge>
                <feMergeNode in="shadowMatrixOuter1"></feMergeNode>
                <feMergeNode in="shadowMatrixOuter2"></feMergeNode>
            </feMerge>
        </filter>
        <path d="M219.163574,14.0021172 L0,14.0021172 L0,52.9645304 C0,52.9645304 49.4612993,66.0792638 109.581787,66.0792638 C169.702275,66.0792638 219.163574,52.9645304 219.163574,52.9645304 L219.163574,14.0021172 Z" id="path-15"></path>
        <filter x="-1.8%" y="-3.8%" width="103.7%" height="115.4%" filterUnits="objectBoundingBox" id="filter-16">
            <feOffset dx="0" dy="2" in="SourceAlpha" result="shadowOffsetOuter1"></feOffset>
            <feGaussianBlur stdDeviation="1" in="shadowOffsetOuter1" result="shadowBlurOuter1"></feGaussianBlur>
            <feColorMatrix values="0 0 0 0 0.176470588   0 0 0 0 0.168627451   0 0 0 0 0.392156863  0 0 0 0.24 0" type="matrix" in="shadowBlurOuter1"></feColorMatrix>
        </filter>
    </defs>
    <g id="design-v2" stroke="none" stroke-width="1" fill="none" fill-rule="evenodd">
        <g id="Artboard" transform="translate(-3696.000000, -1112.000000)">
            <g id="content" transform="translate(3384.000000, 342.000000)">
                <g id="phones">
                    <g id="phone-halsa-small-right-bottom" transform="translate(312.000000, 770.000000)">
                        <g id="Main-Black-Body">
                            <use fill="#F5F6FF" fill-rule="evenodd" xlink:href="#path-1"></use>
                            <use fill="black" fill-opacity="1" filter="url(#filter-2)" xlink:href="#path-1"></use>
                        </g>
                        <g id="Screen" transform="translate(10.000000, 32.000000)">
                            <mask id="mask-4" fill="white">
                                <use xlink:href="#path-3"></use>
                            </mask>
                            <use id="Screenshot-Mask" fill="#F5F6FF" xlink:href="#path-3"></use>
                            <g id="Group-10" mask="url(#mask-4)">
                                <g transform="translate(-1.000000, 78.000000)">
                                    <g id="field-name" stroke-width="1" fill="none" fill-rule="evenodd" transform="translate(9.950446, 30.211104)">
                                        <g id="bg">
                                            <g id="bg-back">
                                                <use fill="black" fill-opacity="1" filter="url(#filter-6)" xlink:href="#path-5"></use>
                                                <use fill="#FAFAFE" fill-rule="evenodd" xlink:href="#path-5"></use>
                                            </g>
                                        </g>
                                        <path d="M11.5161059,11.6404072 L10.4460253,11.6404072 L10.4460253,5.65542133 L14.2618167,5.65542133 L14.2618167,6.58033599 L11.5161059,6.58033599 L11.5161059,8.32232772 L14.0254035,8.32232772 L14.0254035,9.21406159 L11.5161059,9.21406159 L11.5161059,11.6404072 Z M18.9811922,7.10293351 L18.9811922,11.6404072 L17.989916,11.6404072 L17.989916,10.9187249 L17.9194068,10.9187249 C17.699584,11.4371748 17.2557909,11.7316544 16.5631418,11.7316544 C15.5718655,11.7316544 14.9912016,11.1136621 14.9912016,10.0518767 L14.9912016,7.10293351 L16.0198063,7.10293351 L16.0198063,9.7947255 C16.0198063,10.4873746 16.3059906,10.8274777 16.9198353,10.8274777 C17.5875988,10.8274777 17.9525876,10.4168654 17.9525876,9.7449543 L17.9525876,7.10293351 L18.9811922,7.10293351 Z M19.9801711,11.6404072 L19.9801711,5.34849898 L21.0087757,5.34849898 L21.0087757,11.6404072 L19.9801711,11.6404072 Z M22.045083,11.6404072 L22.045083,5.34849898 L23.0736877,5.34849898 L23.0736877,11.6404072 L22.045083,11.6404072 Z M27.1703307,11.6404072 L26.1375785,11.6404072 L26.1375785,5.65542133 L27.0666408,5.65542133 L30.0031411,9.72421631 L30.0736503,9.72421631 L30.0736503,5.65542133 L31.1022549,5.65542133 L31.1022549,11.6404072 L30.1773403,11.6404072 L27.2408399,7.56746464 L27.1703307,7.56746464 L27.1703307,11.6404072 Z M33.7229452,10.9062821 C34.3450851,10.9062821 34.8096162,10.503965 34.8096162,9.97721987 L34.8096162,9.61637872 L33.7851592,9.68274031 C33.2086429,9.72006871 32.9390489,9.92744868 32.9390489,10.296585 C32.9390489,10.6781642 33.2667093,10.9062821 33.7229452,10.9062821 Z M33.4201704,11.715064 C32.545027,11.715064 31.9187395,11.1841713 31.9187395,10.3546514 C31.9187395,9.53342674 32.5367318,9.06060041 33.6399932,8.99423882 L34.8096162,8.92372963 L34.8096162,8.54215049 C34.8096162,8.09835736 34.5109891,7.84950139 33.9552107,7.84950139 C33.4823844,7.84950139 33.1588717,8.01540537 33.0634769,8.32232772 L32.0929386,8.32232772 C32.1758906,7.52184104 32.9266061,7.01168632 34.0049819,7.01168632 C35.1704574,7.01168632 35.8257781,7.57990744 35.8257781,8.54215049 L35.8257781,11.6404072 L34.8345018,11.6404072 L34.8345018,11.0182673 L34.7639926,11.0182673 C34.5109891,11.4579128 34.0132771,11.715064 33.4201704,11.715064 Z M36.7583954,11.6404072 L36.7583954,7.10293351 L37.7496716,7.10293351 L37.7496716,7.8370586 L37.8201808,7.8370586 C38.015118,7.31860868 38.4796491,7.01168632 39.081051,7.01168632 C39.7073385,7.01168632 40.1428365,7.32690387 40.333626,7.8370586 L40.4041352,7.8370586 C40.6281056,7.33934667 41.1507031,7.01168632 41.7811382,7.01168632 C42.6894625,7.01168632 43.2369456,7.57990744 43.2369456,8.52141249 L43.2369456,11.6404072 L42.2124885,11.6404072 L42.2124885,8.78271125 C42.2124885,8.19789974 41.9345994,7.90756779 41.3829687,7.90756779 C40.8479283,7.90756779 40.4953824,8.29744213 40.4953824,8.81589205 L40.4953824,11.6404072 L39.4958109,11.6404072 L39.4958109,8.70805446 C39.4958109,8.21034254 39.1805934,7.90756779 38.6745863,7.90756779 C38.1644316,7.90756779 37.787,8.32647532 37.787,8.88225364 L37.787,11.6404072 L36.7583954,11.6404072 Z M46.0567206,7.8287634 C45.4428759,7.8287634 45.0115256,8.26840893 44.965902,8.93202483 L47.1019156,8.93202483 C47.0811776,8.26011373 46.6747129,7.8287634 46.0567206,7.8287634 Z M47.1102108,10.3919798 L48.0848967,10.3919798 C47.8982547,11.2173521 47.139244,11.7316544 46.0691634,11.7316544 C44.7336364,11.7316544 43.9290021,10.8482157 43.9290021,9.38826076 C43.9290021,7.92830578 44.7460792,7.01168632 46.0608682,7.01168632 C47.3549192,7.01168632 48.1305203,7.87023939 48.1305203,9.30116117 L48.1305203,9.63296912 L44.9617544,9.63296912 L44.9617544,9.68688791 C44.98664,10.441751 45.4221379,10.9145773 46.0981966,10.9145773 C46.6083513,10.9145773 46.9608973,10.7279354 47.1102108,10.3919798 Z" id="Name" fill="#ED4679"></path>
                                        <path d="M15.02616,23.6963196 L14.3388435,21.7386527 L11.6180183,21.7386527 L10.9307019,23.6963196 L10.0348204,23.6963196 L12.5565608,16.8563357 L13.400301,16.8563357 L15.9220414,23.6963196 L15.02616,23.6963196 Z M12.94051,17.9607822 L11.8692444,21.0134153 L14.0876175,21.0134153 L13.0163518,17.9607822 L12.94051,17.9607822 Z M16.6529669,23.6963196 L16.6529669,18.5864772 L17.4303456,18.5864772 L17.4303456,19.3922965 L17.5061874,19.3922965 C17.7621535,18.8282229 18.2598654,18.496415 19.0419842,18.496415 C20.1890917,18.496415 20.829007,19.1742512 20.829007,20.3877203 L20.829007,23.6963196 L20.0137075,23.6963196 L20.0137075,20.5868051 C20.0137075,19.667223 19.6250181,19.2311326 18.8097186,19.2311326 C17.9944191,19.2311326 17.4682665,19.7762457 17.4682665,20.6721271 L17.4682665,23.6963196 L16.6529669,23.6963196 Z M22.2946501,17.2639855 L23.1099496,17.2639855 L23.1099496,18.5864772 L24.2475769,18.5864772 L24.2475769,19.2690535 L23.1099496,19.2690535 L23.1099496,22.1605228 C23.1099496,22.7625172 23.3374751,23.0184833 23.8683678,23.0184833 C24.0153113,23.0184833 24.0958932,23.0137432 24.2475769,22.9995229 L24.2475769,23.6868393 C24.086413,23.71528 23.9299893,23.7342405 23.7688254,23.7342405 C22.7165202,23.7342405 22.2946501,23.3455512 22.2946501,22.3690878 L22.2946501,19.2690535 L21.4698703,19.2690535 L21.4698703,18.5864772 L22.2946501,18.5864772 L22.2946501,17.2639855 Z M27.1447343,23.7863817 C25.6895194,23.7863817 24.7888978,22.7814777 24.7888978,21.1413984 C24.7888978,19.496579 25.6895194,18.496415 27.1447343,18.496415 C28.5999491,18.496415 29.5005707,19.496579 29.5005707,21.1413984 C29.5005707,22.7814777 28.5999491,23.7863817 27.1447343,23.7863817 Z M27.1447343,23.0516641 C28.1117174,23.0516641 28.6568305,22.3501273 28.6568305,21.1413984 C28.6568305,19.9279293 28.1117174,19.2311326 27.1447343,19.2311326 C26.1777511,19.2311326 25.6326381,19.9279293 25.6326381,21.1413984 C25.6326381,22.3501273 26.1777511,23.0516641 27.1447343,23.0516641 Z M30.4163606,23.6963196 L30.4163606,18.5864772 L31.1937393,18.5864772 L31.1937393,19.3922965 L31.2695811,19.3922965 C31.5255472,18.8282229 32.0232591,18.496415 32.8053779,18.496415 C33.9524854,18.496415 34.5924007,19.1742512 34.5924007,20.3877203 L34.5924007,23.6963196 L33.7771012,23.6963196 L33.7771012,20.5868051 C33.7771012,19.667223 33.3884118,19.2311326 32.5731123,19.2311326 C31.7578128,19.2311326 31.2316602,19.7762457 31.2316602,20.6721271 L31.2316602,23.6963196 L30.4163606,23.6963196 Z M44.9372245,23.6963196 L44.1408854,23.6963196 L44.1408854,18.4727144 L44.0840041,18.4727144 L41.9272524,23.6963196 L41.2067551,23.6963196 L39.0500035,18.4727144 L38.9931221,18.4727144 L38.9931221,23.6963196 L38.196783,23.6963196 L38.196783,16.8563357 L39.1874668,16.8563357 L41.5290829,22.5634324 L41.6049247,22.5634324 L43.9465408,16.8563357 L44.9372245,16.8563357 L44.9372245,23.6963196 Z M47.7869808,23.0706246 C48.6259809,23.0706246 49.2469357,22.5207714 49.2469357,21.7907939 L49.2469357,21.3215227 L47.8723028,21.4115848 C47.0949242,21.4637261 46.753636,21.7339126 46.753636,22.2458448 C46.753636,22.7672573 47.1944666,23.0706246 47.7869808,23.0706246 Z M47.6352971,23.7863817 C46.6446134,23.7863817 45.9098958,23.1986076 45.9098958,22.2648053 C45.9098958,21.3499634 46.5829919,20.8238108 47.7727604,20.752709 L49.2469357,20.6626469 L49.2469357,20.1981158 C49.2469357,19.5676807 48.8535063,19.2216524 48.090348,19.2216524 C47.4788734,19.2216524 47.0522632,19.4539179 46.9385004,19.8568276 L46.1137207,19.8568276 C46.2227433,19.0367879 47.0285626,18.496415 48.1187887,18.496415 C49.3654386,18.496415 50.0622353,19.1363303 50.0622353,20.1981158 L50.0622353,23.6963196 L49.2848566,23.6963196 L49.2848566,22.9426415 L49.2090148,22.9426415 C48.8772069,23.4877546 48.3178735,23.7863817 47.6352971,23.7863817 Z M51.2055507,23.6963196 L51.2055507,18.5864772 L51.9829293,18.5864772 L51.9829293,19.3448953 L52.0587711,19.3448953 C52.2104547,18.8471834 52.7982288,18.496415 53.476065,18.496415 C53.6087882,18.496415 53.7794323,18.5058952 53.8837148,18.5201156 L53.8837148,19.3354151 C53.8173532,19.3164546 53.5234662,19.288014 53.3623023,19.288014 C52.5849237,19.288014 52.0208502,19.8094264 52.0208502,20.5299237 L52.0208502,23.6963196 L51.2055507,23.6963196 Z M55.477341,20.8190706 L57.6957141,18.5864772 L58.6958781,18.5864772 L56.4964654,20.7764096 L58.8428216,23.6963196 L57.8047367,23.6963196 L55.8897309,21.3025622 L55.4014992,21.7576131 L55.4014992,23.6963196 L54.5861996,23.6963196 L54.5861996,16.5577085 L55.4014992,16.5577085 L55.4014992,20.8190706 L55.477341,20.8190706 Z M59.1376567,19.9848107 C59.1376567,19.1363303 59.9576963,18.496415 61.0431823,18.496415 C62.114448,18.496415 62.8586458,19.0273077 62.9676684,19.8663078 L62.1618491,19.8663078 C62.0528265,19.458658 61.654657,19.1884716 61.0384422,19.1884716 C60.4317077,19.1884716 59.9576963,19.496579 59.9576963,19.9516299 C59.9576963,20.3023983 60.2421031,20.5204435 60.8440975,20.667387 L61.6309564,20.8569915 C62.5931994,21.0892571 63.0577306,21.5063871 63.0577306,22.2411047 C63.0577306,23.1559466 62.1713293,23.7863817 61.0100015,23.7863817 C59.8723743,23.7863817 59.0902555,23.2412687 59.0001934,22.3927883 L59.8391935,22.3927883 C59.9766568,22.8241387 60.3843065,23.0990653 61.0384422,23.0990653 C61.7257587,23.0990653 62.2187305,22.7719974 62.2187305,22.3027262 C62.2187305,21.9519578 61.9532841,21.7149521 61.4081711,21.5822289 L60.53125,21.3689238 C59.5737471,21.1366582 59.1376567,20.7242684 59.1376567,19.9848107 Z" id="John-Johnson" fill="#0A0830"></path>
                                    </g>
                                    <g id="field-name" stroke-width="1" fill="none" fill-rule="evenodd" transform="translate(9.950446, 144.641238)">
                                        <g id="bg">
                                            <g id="bg-back">
                                                <use fill="black" fill-opacity="1" filter="url(#filter-8)" xlink:href="#path-7"></use>
                                                <use fill="#FAFAFE" fill-rule="evenodd" xlink:href="#path-7"></use>
                                            </g>
                                        </g>
                                        <path d="M10.1722837,10.0145483 L11.2174787,10.0145483 C11.2838403,10.5495886 11.814733,10.8938393 12.5737437,10.8938393 C13.2788356,10.8938393 13.7889903,10.5329982 13.7889903,10.0311387 C13.7889903,9.59978833 13.46133,9.34678477 12.6940241,9.16843799 L11.918423,8.99009122 C10.831752,8.74538286 10.3215973,8.20619494 10.3215973,7.31446108 C10.3215973,6.22779004 11.2091835,5.50610775 12.5488581,5.50610775 C13.8055807,5.50610775 14.713905,6.22779004 14.7636762,7.25639469 L13.7392192,7.25639469 C13.6645624,6.72964957 13.2000312,6.39784162 12.5447105,6.39784162 C11.856209,6.39784162 11.3999731,6.72964957 11.3999731,7.23980429 C11.3999731,7.64212143 11.7027479,7.87853459 12.4451682,8.04858616 L13.1336696,8.20619494 C14.3489163,8.4799365 14.859071,8.98594362 14.859071,9.89841548 C14.859071,11.0638909 13.9590419,11.7897208 12.5073821,11.7897208 C11.1345268,11.7897208 10.2262025,11.1012193 10.1722837,10.0145483 Z M17.6083368,11.7316544 C16.2479242,11.7316544 15.4266995,10.8440681 15.4266995,9.37167036 C15.4266995,7.90756779 16.260367,7.01168632 17.6083368,7.01168632 C18.9604542,7.01168632 19.7899741,7.90342019 19.7899741,9.37167036 C19.7899741,10.8440681 18.9646018,11.7316544 17.6083368,11.7316544 Z M17.6083368,10.8689537 C18.3258715,10.8689537 18.7323362,10.3214706 18.7323362,9.37167036 C18.7323362,8.42601771 18.3217239,7.87438699 17.6083368,7.87438699 C16.8908021,7.87438699 16.4801898,8.42601771 16.4801898,9.37167036 C16.4801898,10.3214706 16.8908021,10.8689537 17.6083368,10.8689537 Z M24.442988,8.62925008 L23.4641546,8.62925008 C23.3687598,8.18960454 23.0286566,7.87438699 22.4645831,7.87438699 C21.7594912,7.87438699 21.3405837,8.41772251 21.3405837,9.35922756 C21.3405837,10.3131754 21.7636388,10.8689537 22.4645831,10.8689537 C22.9996234,10.8689537 23.356317,10.6159502 23.4641546,10.1431238 L24.442988,10.1431238 C24.3310028,11.0929241 23.6176157,11.7316544 22.4687307,11.7316544 C21.1041705,11.7316544 20.2995362,10.8523633 20.2995362,9.35922756 C20.2995362,7.88682979 21.1000229,7.01168632 22.4645831,7.01168632 C23.6300585,7.01168632 24.3351504,7.67530222 24.442988,8.62925008 Z M25.1350446,11.6404072 L25.1350446,7.10293351 L26.1595016,7.10293351 L26.1595016,11.6404072 L25.1350446,11.6404072 Z M25.6451993,6.35221802 C25.3092437,6.35221802 25.0313546,6.07847647 25.0313546,5.73422572 C25.0313546,5.38997497 25.3092437,5.11208581 25.6451993,5.11208581 C25.9853024,5.11208581 26.259044,5.38997497 26.259044,5.73422572 C26.259044,6.07847647 25.9853024,6.35221802 25.6451993,6.35221802 Z M28.6806495,10.9062821 C29.3027894,10.9062821 29.7673205,10.503965 29.7673205,9.97721987 L29.7673205,9.61637872 L28.7428635,9.68274031 C28.1663471,9.72006871 27.8967532,9.92744868 27.8967532,10.296585 C27.8967532,10.6781642 28.2244135,10.9062821 28.6806495,10.9062821 Z M28.3778747,11.715064 C27.5027312,11.715064 26.8764437,11.1841713 26.8764437,10.3546514 C26.8764437,9.53342674 27.494436,9.06060041 28.5976975,8.99423882 L29.7673205,8.92372963 L29.7673205,8.54215049 C29.7673205,8.09835736 29.4686933,7.84950139 28.912915,7.84950139 C28.4400887,7.84950139 28.1165759,8.01540537 28.0211812,8.32232772 L27.0506429,8.32232772 C27.1335949,7.52184104 27.8843104,7.01168632 28.9626862,7.01168632 C30.1281616,7.01168632 30.7834823,7.57990744 30.7834823,8.54215049 L30.7834823,11.6404072 L29.7922061,11.6404072 L29.7922061,11.0182673 L29.7216969,11.0182673 C29.4686933,11.4579128 28.9709814,11.715064 28.3778747,11.715064 Z M31.7575756,11.6404072 L31.7575756,5.34849898 L32.7861803,5.34849898 L32.7861803,11.6404072 L31.7575756,11.6404072 Z M35.5763295,10.0145483 L36.6215246,10.0145483 C36.6878862,10.5495886 37.2187789,10.8938393 37.9777896,10.8938393 C38.6828815,10.8938393 39.1930362,10.5329982 39.1930362,10.0311387 C39.1930362,9.59978833 38.8653758,9.34678477 38.09807,9.16843799 L37.3224689,8.99009122 C36.2357978,8.74538286 35.7256431,8.20619494 35.7256431,7.31446108 C35.7256431,6.22779004 36.6132294,5.50610775 37.952904,5.50610775 C39.2096266,5.50610775 40.1179509,6.22779004 40.167722,7.25639469 L39.143265,7.25639469 C39.0686082,6.72964957 38.6040771,6.39784162 37.9487564,6.39784162 C37.2602549,6.39784162 36.804019,6.72964957 36.804019,7.23980429 C36.804019,7.64212143 37.1067937,7.87853459 37.849214,8.04858616 L38.5377155,8.20619494 C39.7529621,8.4799365 40.2631168,8.98594362 40.2631168,9.89841548 C40.2631168,11.0638909 39.3630878,11.7897208 37.911428,11.7897208 C36.5385726,11.7897208 35.6302483,11.1012193 35.5763295,10.0145483 Z M42.9584639,7.8287634 C42.3446192,7.8287634 41.9132688,8.26840893 41.8676452,8.93202483 L44.0036589,8.93202483 C43.9829209,8.26011373 43.5764562,7.8287634 42.9584639,7.8287634 Z M44.0119541,10.3919798 L44.98664,10.3919798 C44.799998,11.2173521 44.0409873,11.7316544 42.9709067,11.7316544 C41.6353797,11.7316544 40.8307454,10.8482157 40.8307454,9.38826076 C40.8307454,7.92830578 41.6478225,7.01168632 42.9626115,7.01168632 C44.2566625,7.01168632 45.0322636,7.87023939 45.0322636,9.30116117 L45.0322636,9.63296912 L41.8634976,9.63296912 L41.8634976,9.68688791 C41.8883832,10.441751 42.3238812,10.9145773 42.9999399,10.9145773 C43.5100946,10.9145773 43.8626405,10.7279354 44.0119541,10.3919798 Z M49.6811299,8.62925008 L48.7022964,8.62925008 C48.6069017,8.18960454 48.2667985,7.87438699 47.702725,7.87438699 C46.9976331,7.87438699 46.5787256,8.41772251 46.5787256,9.35922756 C46.5787256,10.3131754 47.0017807,10.8689537 47.702725,10.8689537 C48.2377653,10.8689537 48.5944589,10.6159502 48.7022964,10.1431238 L49.6811299,10.1431238 C49.5691447,11.0929241 48.8557576,11.7316544 47.7068726,11.7316544 C46.3423124,11.7316544 45.5376781,10.8523633 45.5376781,9.35922756 C45.5376781,7.88682979 46.3381648,7.01168632 47.702725,7.01168632 C48.8682004,7.01168632 49.5732923,7.67530222 49.6811299,8.62925008 Z M54.3092582,7.10293351 L54.3092582,11.6404072 L53.317982,11.6404072 L53.317982,10.9187249 L53.2474728,10.9187249 C53.02765,11.4371748 52.5838569,11.7316544 51.8912078,11.7316544 C50.8999315,11.7316544 50.3192676,11.1136621 50.3192676,10.0518767 L50.3192676,7.10293351 L51.3478723,7.10293351 L51.3478723,9.7947255 C51.3478723,10.4873746 51.6340566,10.8274777 52.2479013,10.8274777 C52.9156648,10.8274777 53.2806536,10.4168654 53.2806536,9.7449543 L53.2806536,7.10293351 L54.3092582,7.10293351 Z M55.2667611,11.6404072 L55.2667611,7.10293351 L56.2580374,7.10293351 L56.2580374,7.8080254 L56.3285466,7.8080254 C56.4529745,7.36008467 56.9423913,7.02827672 57.5272028,7.02827672 C57.6765164,7.02827672 57.8590107,7.04486712 57.9544055,7.07390031 L57.9544055,8.02784817 C57.8756011,7.99881497 57.6018596,7.96978178 57.4276604,7.96978178 C56.7598969,7.96978178 56.2953658,8.38454171 56.2953658,9.01912442 L56.2953658,11.6404072 L55.2667611,11.6404072 Z M58.5054437,11.6404072 L58.5054437,7.10293351 L59.5299007,7.10293351 L59.5299007,11.6404072 L58.5054437,11.6404072 Z M59.0155984,6.35221802 C58.6796429,6.35221802 58.4017537,6.07847647 58.4017537,5.73422572 C58.4017537,5.38997497 58.6796429,5.11208581 59.0155984,5.11208581 C59.3557016,5.11208581 59.6294431,5.38997497 59.6294431,5.73422572 C59.6294431,6.07847647 59.3557016,6.35221802 59.0155984,6.35221802 Z M60.8275068,5.99137688 L61.8519638,5.99137688 L61.8519638,7.1319667 L62.8225021,7.1319667 L62.8225021,7.95319138 L61.8519638,7.95319138 L61.8519638,10.1804522 C61.8519638,10.628393 62.0427534,10.8274777 62.4741037,10.8274777 C62.6192697,10.8274777 62.6980741,10.8191825 62.8225021,10.8067397 L62.8225021,11.611374 C62.6731885,11.6404072 62.4823989,11.6611452 62.2833142,11.6611452 C61.2422667,11.6611452 60.8275068,11.3085993 60.8275068,10.4293082 L60.8275068,7.95319138 L60.1099721,7.95319138 L60.1099721,7.1319667 L60.8275068,7.1319667 L60.8275068,5.99137688 Z M64.0454513,13.2870042 C63.9832373,13.2870042 63.7053482,13.2828566 63.6389866,13.2704138 L63.6389866,12.4284511 C63.697053,12.4408939 63.8505142,12.4450415 63.9210234,12.4450415 C64.3565213,12.4450415 64.6012296,12.2791375 64.7339528,11.86023 L64.7878716,11.6611452 L63.1661603,7.10293351 L64.2943073,7.10293351 L65.3560927,10.6449834 L65.4266019,10.6449834 L66.4842398,7.10293351 L67.5709108,7.10293351 L65.932609,11.7855732 C65.5468823,12.9137202 65.0616132,13.2870042 64.0454513,13.2870042 Z M71.2527939,11.6404072 L70.2200417,11.6404072 L70.2200417,5.65542133 L71.1491039,5.65542133 L74.0856043,9.72421631 L74.1561135,9.72421631 L74.1561135,5.65542133 L75.1847181,5.65542133 L75.1847181,11.6404072 L74.2598035,11.6404072 L71.3233031,7.56746464 L71.2527939,7.56746464 L71.2527939,11.6404072 Z M80.2027208,7.10293351 L80.2027208,11.6404072 L79.2114446,11.6404072 L79.2114446,10.9187249 L79.1409354,10.9187249 C78.9211126,11.4371748 78.4773195,11.7316544 77.7846704,11.7316544 C76.7933941,11.7316544 76.2127302,11.1136621 76.2127302,10.0518767 L76.2127302,7.10293351 L77.2413349,7.10293351 L77.2413349,9.7947255 C77.2413349,10.4873746 77.5275192,10.8274777 78.1413639,10.8274777 C78.8091274,10.8274777 79.1741162,10.4168654 79.1741162,9.7449543 L79.1741162,7.10293351 L80.2027208,7.10293351 Z M81.1602237,11.6404072 L81.1602237,7.10293351 L82.1515,7.10293351 L82.1515,7.8370586 L82.2220091,7.8370586 C82.4169463,7.31860868 82.8814774,7.01168632 83.4828793,7.01168632 C84.1091669,7.01168632 84.5446648,7.32690387 84.7354544,7.8370586 L84.8059635,7.8370586 C85.0299339,7.33934667 85.5525314,7.01168632 86.1829665,7.01168632 C87.0912908,7.01168632 87.6387739,7.57990744 87.6387739,8.52141249 L87.6387739,11.6404072 L86.6143169,11.6404072 L86.6143169,8.78271125 C86.6143169,8.19789974 86.3364277,7.90756779 85.784797,7.90756779 C85.2497567,7.90756779 84.8972107,8.29744213 84.8972107,8.81589205 L84.8972107,11.6404072 L83.8976393,11.6404072 L83.8976393,8.70805446 C83.8976393,8.21034254 83.5824217,7.90756779 83.0764146,7.90756779 C82.5662599,7.90756779 82.1888283,8.32647532 82.1888283,8.88225364 L82.1888283,11.6404072 L81.1602237,11.6404072 Z M91.0765412,11.715064 C90.4419585,11.715064 89.9152134,11.4205844 89.6580623,10.9228725 L89.5875531,10.9228725 L89.5875531,11.6404072 L88.5962768,11.6404072 L88.5962768,5.34849898 L89.6248815,5.34849898 L89.6248815,7.8246158 L89.6953906,7.8246158 C89.9318038,7.33105147 90.4544013,7.02827672 91.0765412,7.02827672 C92.2254263,7.02827672 92.9388133,7.92001058 92.9388133,9.37167036 C92.9388133,10.8150349 92.2212787,11.715064 91.0765412,11.715064 Z M90.7530285,7.90342019 C90.0520842,7.90342019 89.6082911,8.4674937 89.6082911,9.37167036 C89.6082911,10.275847 90.0479366,10.8399205 90.7530285,10.8399205 C91.4581204,10.8399205 91.8811755,10.2841422 91.8811755,9.37167036 C91.8811755,8.4591985 91.4539728,7.90342019 90.7530285,7.90342019 Z M95.5719464,7.8287634 C94.9581017,7.8287634 94.5267514,8.26840893 94.4811278,8.93202483 L96.6171414,8.93202483 C96.5964034,8.26011373 96.1899387,7.8287634 95.5719464,7.8287634 Z M96.6254366,10.3919798 L97.6001225,10.3919798 C97.4134805,11.2173521 96.6544698,11.7316544 95.5843892,11.7316544 C94.2488622,11.7316544 93.4442279,10.8482157 93.4442279,9.38826076 C93.4442279,7.92830578 94.261305,7.01168632 95.576094,7.01168632 C96.870145,7.01168632 97.6457461,7.87023939 97.6457461,9.30116117 L97.6457461,9.63296912 L94.4769802,9.63296912 L94.4769802,9.68688791 C94.5018658,10.441751 94.9373637,10.9145773 95.6134224,10.9145773 C96.1235771,10.9145773 96.4761231,10.7279354 96.6254366,10.3919798 Z M98.375131,11.6404072 L98.375131,7.10293351 L99.3664073,7.10293351 L99.3664073,7.8080254 L99.4369165,7.8080254 C99.5613444,7.36008467 100.050761,7.02827672 100.635573,7.02827672 C100.784886,7.02827672 100.967381,7.04486712 101.062775,7.07390031 L101.062775,8.02784817 C100.983971,7.99881497 100.710229,7.96978178 100.53603,7.96978178 C99.8682668,7.96978178 99.4037357,8.38454171 99.4037357,9.01912442 L99.4037357,11.6404072 L98.375131,11.6404072 Z" id="Name" fill="#ED4679"></path>
                                        <path d="M13.5946457,23.6963196 L13.5946457,22.2790256 L10.2623459,22.2790256 L10.2623459,21.501647 C11.186668,19.9516299 12.2342331,18.2831099 13.191736,16.8563357 L14.4289057,16.8563357 L14.4289057,21.5158673 L15.400629,21.5158673 L15.400629,22.2790256 L14.4289057,22.2790256 L14.4289057,23.6963196 L13.5946457,23.6963196 Z M11.1345268,21.4637261 L11.1345268,21.5206074 L13.5993858,21.5206074 L13.5993858,17.6479347 L13.5425044,17.6479347 C12.774606,18.7950421 11.8787246,20.207596 11.1345268,21.4637261 Z M19.4780746,23.6963196 L19.4780746,22.2790256 L16.1457748,22.2790256 L16.1457748,21.501647 C17.0700969,19.9516299 18.117662,18.2831099 19.075165,16.8563357 L20.3123346,16.8563357 L20.3123346,21.5158673 L21.2840579,21.5158673 L21.2840579,22.2790256 L20.3123346,22.2790256 L20.3123346,23.6963196 L19.4780746,23.6963196 Z M17.0179557,21.4637261 L17.0179557,21.5206074 L19.4828147,21.5206074 L19.4828147,17.6479347 L19.4259334,17.6479347 C18.658035,18.7950421 17.7621535,20.207596 17.0179557,21.4637261 Z M25.3615036,23.6963196 L25.3615036,22.2790256 L22.0292037,22.2790256 L22.0292037,21.501647 C22.9535259,19.9516299 24.001091,18.2831099 24.9585939,16.8563357 L26.1957636,16.8563357 L26.1957636,21.5158673 L27.1674868,21.5158673 L27.1674868,22.2790256 L26.1957636,22.2790256 L26.1957636,23.6963196 L25.3615036,23.6963196 Z M22.9013846,21.4637261 L22.9013846,21.5206074 L25.3662437,21.5206074 L25.3662437,17.6479347 L25.3093623,17.6479347 C24.5414639,18.7950421 23.6455825,20.207596 22.9013846,21.4637261 Z M29.5574521,20.5441441 L29.5574521,19.8141666 L30.3680115,19.8141666 C31.1548703,19.8141666 31.7142038,19.3117145 31.7142038,18.6006975 C31.7142038,17.9607822 31.2259721,17.4393697 30.4011923,17.4393697 C29.5764125,17.4393697 29.0407797,17.8612398 28.969678,18.6291382 L28.1401581,18.6291382 C28.2254802,17.5152115 29.0739605,16.6951718 30.4580737,16.6951718 C31.809006,16.6951718 32.5863846,17.5483923 32.5816445,18.5058952 C32.5769044,19.330675 32.0649722,19.875788 31.3634353,20.0796129 L31.3634353,20.1554547 C32.2498366,20.2976581 32.8376107,20.8996526 32.8376107,21.8524154 C32.8376107,22.9995229 31.7900456,23.8574834 30.429633,23.8574834 C29.0407797,23.8574834 28.0832768,23.0943251 28.0216553,21.9329973 L28.846435,21.9329973 C28.9222769,22.6534946 29.5384916,23.1132856 30.4201527,23.1132856 C31.3207743,23.1132856 31.9606897,22.5966132 31.9606897,21.8287148 C31.9606897,21.0371159 31.3681755,20.5441441 30.4059324,20.5441441 L29.5574521,20.5441441 Z M36.9245366,21.3310029 L33.8150221,21.3310029 L33.8150221,20.5583644 L36.9245366,20.5583644 L36.9245366,21.3310029 Z M39.4946261,20.5441441 L39.4946261,19.8141666 L40.3051855,19.8141666 C41.0920444,19.8141666 41.6513778,19.3117145 41.6513778,18.6006975 C41.6513778,17.9607822 41.1631461,17.4393697 40.3383663,17.4393697 C39.5135866,17.4393697 38.9779537,17.8612398 38.906852,18.6291382 L38.0773322,18.6291382 C38.1626542,17.5152115 39.0111345,16.6951718 40.3952477,16.6951718 C41.7461801,16.6951718 42.5235587,17.5483923 42.5188186,18.5058952 C42.5140785,19.330675 42.0021462,19.875788 41.3006094,20.0796129 L41.3006094,20.1554547 C42.1870106,20.2976581 42.7747847,20.8996526 42.7747847,21.8524154 C42.7747847,22.9995229 41.7272196,23.8574834 40.366807,23.8574834 C38.9779537,23.8574834 38.0204508,23.0943251 37.9588293,21.9329973 L38.7836091,21.9329973 C38.8594509,22.6534946 39.4756657,23.1132856 40.3573268,23.1132856 C41.2579484,23.1132856 41.8978637,22.5966132 41.8978637,21.8287148 C41.8978637,21.0371159 41.3053495,20.5441441 40.3431065,20.5441441 L39.4946261,20.5441441 Z M46.9043716,23.6963196 L46.9043716,22.2790256 L43.5720718,22.2790256 L43.5720718,21.501647 C44.4963939,19.9516299 45.543959,18.2831099 46.501462,16.8563357 L47.7386316,16.8563357 L47.7386316,21.5158673 L48.7103549,21.5158673 L48.7103549,22.2790256 L47.7386316,22.2790256 L47.7386316,23.6963196 L46.9043716,23.6963196 Z M44.4442527,21.4637261 L44.4442527,21.5206074 L46.9091117,21.5206074 L46.9091117,17.6479347 L46.8522304,17.6479347 C46.084332,18.7950421 45.1884505,20.207596 44.4442527,21.4637261 Z M51.9393202,23.8574834 C50.6452692,23.8574834 49.716207,23.0611444 49.6403652,21.8903363 L50.4793653,21.8903363 C50.5552071,22.6203138 51.1429812,23.1085455 51.9488005,23.1085455 C52.8446819,23.1085455 53.4371961,22.46389 53.4371961,21.5063871 C53.4371961,20.582065 52.8446819,19.9611101 51.9819813,19.9611101 C51.3325857,19.9611101 50.8206534,20.2597372 50.550467,20.7669294 L49.7493878,20.7669294 L50.1428172,16.8563357 L53.9396482,16.8563357 L53.9396482,17.619494 L50.8111732,17.619494 L50.5978681,19.8473474 L50.6737099,19.8473474 C51.0055179,19.4349575 51.51271,19.2263925 52.1952864,19.2263925 C53.3423939,19.2263925 54.2904166,20.1270141 54.2904166,21.4826865 C54.2904166,22.8905003 53.3376537,23.8574834 51.9393202,23.8574834 Z M56.7420033,20.5441441 L56.7420033,19.8141666 L57.5525627,19.8141666 C58.3394216,19.8141666 58.898755,19.3117145 58.898755,18.6006975 C58.898755,17.9607822 58.4105233,17.4393697 57.5857435,17.4393697 C56.7609637,17.4393697 56.2253309,17.8612398 56.1542292,18.6291382 L55.3247093,18.6291382 C55.4100314,17.5152115 56.2585117,16.6951718 57.6426249,16.6951718 C58.9935572,16.6951718 59.7709359,17.5483923 59.7661957,18.5058952 C59.7614556,19.330675 59.2495234,19.875788 58.5479866,20.0796129 L58.5479866,20.1554547 C59.4343878,20.2976581 60.0221619,20.8996526 60.0221619,21.8524154 C60.0221619,22.9995229 58.9745968,23.8574834 57.6141842,23.8574834 C56.2253309,23.8574834 55.267828,23.0943251 55.2062065,21.9329973 L56.0309863,21.9329973 C56.1068281,22.6534946 56.7230428,23.1132856 57.604704,23.1132856 C58.5053255,23.1132856 59.1452409,22.5966132 59.1452409,21.8287148 C59.1452409,21.0371159 58.5527267,20.5441441 57.5904836,20.5441441 L56.7420033,20.5441441 Z M64.1090878,21.3310029 L60.9995733,21.3310029 L60.9995733,20.5583644 L64.1090878,20.5583644 L64.1090878,21.3310029 Z M67.5797989,23.8574834 C66.1293242,23.8574834 65.1149399,23.0374438 65.1149399,21.8666357 C65.1149399,20.9754944 65.6790134,20.2834378 66.5369739,20.1222739 L66.5369739,20.0464321 C65.8401772,19.8568276 65.3946066,19.2643134 65.3946066,18.5201156 C65.3946066,17.45359 66.2999683,16.6951718 67.5797989,16.6951718 C68.8596296,16.6951718 69.7649913,17.45359 69.7649913,18.5201156 C69.7649913,19.2690535 69.3289008,19.8520875 68.6226239,20.0464321 L68.6226239,20.1222739 C69.4805844,20.2834378 70.044658,20.9754944 70.044658,21.8666357 C70.044658,23.0374438 69.0302737,23.8574834 67.5797989,23.8574834 Z M67.5797989,23.1275059 C68.5278216,23.1275059 69.1819573,22.587133 69.1819573,21.8050143 C69.1819573,21.0228955 68.5278216,20.4825226 67.5797989,20.4825226 C66.6317762,20.4825226 65.9776405,21.0228955 65.9776405,21.8050143 C65.9776405,22.587133 66.6317762,23.1275059 67.5797989,23.1275059 Z M67.5797989,19.7620253 C68.3856182,19.7620253 68.9259912,19.2974942 68.9259912,18.6006975 C68.9259912,17.8944206 68.3903583,17.4251493 67.5797989,17.4251493 C66.7692395,17.4251493 66.2336067,17.8944206 66.2336067,18.6006975 C66.2336067,19.2974942 66.7739796,19.7620253 67.5797989,19.7620253 Z M73.4964086,23.8527433 C72.008013,23.8527433 70.922527,22.6961556 70.922527,20.3924604 C70.922527,18.0413641 71.9369113,16.6951718 73.55329,16.6951718 C74.7999399,16.6951718 75.6199795,17.3824883 75.7953637,18.4442737 L74.9184427,18.4442737 C74.7762393,17.8090985 74.2737873,17.45359 73.5817307,17.45359 C72.4441034,17.45359 71.7804875,18.4016127 71.7520469,20.2597372 L71.8278887,20.2597372 C72.1644367,19.5961213 72.8327927,19.207432 73.6480923,19.207432 C74.9516235,19.207432 75.8949061,20.1696751 75.8949061,21.4969069 C75.8949061,22.8715398 74.8994823,23.8527433 73.4964086,23.8527433 Z M73.4869284,23.1038054 C74.3638494,23.1038054 75.0322054,22.421229 75.0322054,21.5253476 C75.0322054,20.5915452 74.4017703,19.9468897 73.4964086,19.9468897 C72.591047,19.9468897 71.9416514,20.5915452 71.9416514,21.4969069 C71.9416514,22.4117488 72.6100074,23.1038054 73.4869284,23.1038054 Z M79.1760127,23.8574834 C77.8819617,23.8574834 76.9528994,23.0611444 76.8770576,21.8903363 L77.7160577,21.8903363 C77.7918995,22.6203138 78.3796736,23.1085455 79.1854929,23.1085455 C80.0813744,23.1085455 80.6738886,22.46389 80.6738886,21.5063871 C80.6738886,20.582065 80.0813744,19.9611101 79.2186737,19.9611101 C78.5692782,19.9611101 78.0573459,20.2597372 77.7871594,20.7669294 L76.9860802,20.7669294 L77.3795097,16.8563357 L81.1763406,16.8563357 L81.1763406,17.619494 L78.0478657,17.619494 L77.8345606,19.8473474 L77.9104024,19.8473474 C78.2422103,19.4349575 78.7494025,19.2263925 79.4319788,19.2263925 C80.5790863,19.2263925 81.527109,20.1270141 81.527109,21.4826865 C81.527109,22.8905003 80.5743462,23.8574834 79.1760127,23.8574834 Z M85.6661762,23.6963196 L85.6661762,22.2790256 L82.3338763,22.2790256 L82.3338763,21.501647 C83.2581985,19.9516299 84.3057636,18.2831099 85.2632665,16.8563357 L86.5004362,16.8563357 L86.5004362,21.5158673 L87.4721594,21.5158673 L87.4721594,22.2790256 L86.5004362,22.2790256 L86.5004362,23.6963196 L85.6661762,23.6963196 Z M83.2060572,21.4637261 L83.2060572,21.5206074 L85.6709163,21.5206074 L85.6709163,17.6479347 L85.6140349,17.6479347 C84.8461365,18.7950421 83.9502551,20.207596 83.2060572,21.4637261 Z M91.5069441,21.3310029 L88.3974296,21.3310029 L88.3974296,20.5583644 L91.5069441,20.5583644 L91.5069441,21.3310029 Z M94.2761184,23.6963196 L94.2761184,17.8043584 L94.2002766,17.8043584 L92.4606549,19.0652286 L92.4606549,18.164607 L94.2808585,16.8563357 L95.1293389,16.8563357 L95.1293389,23.6963196 L94.2761184,23.6963196 Z M96.7608859,18.7855619 C96.7608859,17.5673527 97.6994284,16.6951718 99.0076998,16.6951718 C100.202208,16.6951718 101.11705,17.5057313 101.11705,18.6149178 C101.11705,19.4017767 100.775762,19.9705903 99.5433326,21.2456809 L97.9885754,22.8525794 L97.9885754,22.9284212 L101.230813,22.9284212 L101.230813,23.6963196 L96.803547,23.6963196 L96.803547,23.1085455 L99.1167224,20.6057655 C99.9889033,19.6624829 100.244869,19.3069744 100.244869,18.70498 C100.244869,17.9797426 99.7566377,17.4393697 98.9508184,17.4393697 C98.1307788,17.4393697 97.5856657,17.9750025 97.5856657,18.7855619 L96.7608859,18.7855619 Z M103.739281,20.5441441 L103.739281,19.8141666 L104.549841,19.8141666 C105.336699,19.8141666 105.896033,19.3117145 105.896033,18.6006975 C105.896033,17.9607822 105.407801,17.4393697 104.583021,17.4393697 C103.758242,17.4393697 103.222609,17.8612398 103.151507,18.6291382 L102.321987,18.6291382 C102.407309,17.5152115 103.25579,16.6951718 104.639903,16.6951718 C105.990835,16.6951718 106.768214,17.5483923 106.763474,18.5058952 C106.758733,19.330675 106.246801,19.875788 105.545264,20.0796129 L105.545264,20.1554547 C106.431666,20.2976581 107.01944,20.8996526 107.01944,21.8524154 C107.01944,22.9995229 105.971875,23.8574834 104.611462,23.8574834 C103.222609,23.8574834 102.265106,23.0943251 102.203484,21.9329973 L103.028264,21.9329973 C103.104106,22.6534946 103.720321,23.1132856 104.601982,23.1132856 C105.502603,23.1132856 106.142519,22.5966132 106.142519,21.8287148 C106.142519,21.0371159 105.550004,20.5441441 104.587761,20.5441441 L103.739281,20.5441441 Z M111.149027,23.6963196 L111.149027,22.2790256 L107.816727,22.2790256 L107.816727,21.501647 C108.741049,19.9516299 109.788614,18.2831099 110.746117,16.8563357 L111.983287,16.8563357 L111.983287,21.5158673 L112.95501,21.5158673 L112.95501,22.2790256 L111.983287,22.2790256 L111.983287,23.6963196 L111.149027,23.6963196 Z M108.688908,21.4637261 L108.688908,21.5206074 L111.153767,21.5206074 L111.153767,17.6479347 L111.096885,17.6479347 C110.328987,18.7950421 109.433106,20.207596 108.688908,21.4637261 Z" id="John-Johnson" fill="#0A0830"></path>
                                    </g>
                                    <g id="field-name" stroke-width="1" fill="none" fill-rule="evenodd" transform="translate(9.950446, 185.686829)">
                                        <g id="bg">
                                            <g id="bg-back">
                                                <use fill="black" fill-opacity="1" filter="url(#filter-10)" xlink:href="#path-9"></use>
                                                <use fill="#FAFAFE" fill-rule="evenodd" xlink:href="#path-9"></use>
                                            </g>
                                        </g>
                                        <path d="M10.4460253,5.65542133 L12.6898765,5.65542133 C14.4691966,5.65542133 15.5060965,6.74209236 15.5060965,8.62095488 C15.5060965,10.5412934 14.4816394,11.6404072 12.6898765,11.6404072 L10.4460253,11.6404072 L10.4460253,5.65542133 Z M11.5161059,6.58033599 L11.5161059,10.7154926 L12.5488581,10.7154926 C13.7392192,10.7154926 14.4152778,9.97307227 14.4152778,8.63754527 C14.4152778,7.33105147 13.7226288,6.58033599 12.5488581,6.58033599 L11.5161059,6.58033599 Z M17.84475,10.9062821 C18.4668899,10.9062821 18.931421,10.503965 18.931421,9.97721987 L18.931421,9.61637872 L17.906964,9.68274031 C17.3304477,9.72006871 17.0608537,9.92744868 17.0608537,10.296585 C17.0608537,10.6781642 17.388514,10.9062821 17.84475,10.9062821 Z M17.5419752,11.715064 C16.6668318,11.715064 16.0405442,11.1841713 16.0405442,10.3546514 C16.0405442,9.53342674 16.6585366,9.06060041 17.761798,8.99423882 L18.931421,8.92372963 L18.931421,8.54215049 C18.931421,8.09835736 18.6327939,7.84950139 18.0770155,7.84950139 C17.6041892,7.84950139 17.2806765,8.01540537 17.1852817,8.32232772 L16.2147434,8.32232772 C16.2976954,7.52184104 17.0484109,7.01168632 18.1267867,7.01168632 C19.2922622,7.01168632 19.9475829,7.57990744 19.9475829,8.54215049 L19.9475829,11.6404072 L18.9563066,11.6404072 L18.9563066,11.0182673 L18.8857974,11.0182673 C18.6327939,11.4579128 18.1350819,11.715064 17.5419752,11.715064 Z M21.2078605,5.99137688 L22.2323175,5.99137688 L22.2323175,7.1319667 L23.2028558,7.1319667 L23.2028558,7.95319138 L22.2323175,7.95319138 L22.2323175,10.1804522 C22.2323175,10.628393 22.4231071,10.8274777 22.8544575,10.8274777 C22.9996234,10.8274777 23.0784278,10.8191825 23.2028558,10.8067397 L23.2028558,11.611374 C23.0535422,11.6404072 22.8627527,11.6611452 22.6636679,11.6611452 C21.6226204,11.6611452 21.2078605,11.3085993 21.2078605,10.4293082 L21.2078605,7.95319138 L20.4903258,7.95319138 L20.4903258,7.1319667 L21.2078605,7.1319667 L21.2078605,5.99137688 Z M25.7903653,7.8287634 C25.1765205,7.8287634 24.7451702,8.26840893 24.6995466,8.93202483 L26.8355603,8.93202483 C26.8148223,8.26011373 26.4083576,7.8287634 25.7903653,7.8287634 Z M26.8438555,10.3919798 L27.8185413,10.3919798 C27.6318994,11.2173521 26.8728887,11.7316544 25.8028081,11.7316544 C24.4672811,11.7316544 23.6626468,10.8482157 23.6626468,9.38826076 C23.6626468,7.92830578 24.4797239,7.01168632 25.7945129,7.01168632 C27.0885639,7.01168632 27.8641649,7.87023939 27.8641649,9.30116117 L27.8641649,9.63296912 L24.695399,9.63296912 L24.695399,9.68688791 C24.7202846,10.441751 25.1557826,10.9145773 25.8318412,10.9145773 C26.341996,10.9145773 26.6945419,10.7279354 26.8438555,10.3919798 Z M32.5124387,11.7316544 C31.1520261,11.7316544 30.3308015,10.8440681 30.3308015,9.37167036 C30.3308015,7.90756779 31.1644689,7.01168632 32.5124387,7.01168632 C33.8645561,7.01168632 34.694076,7.90342019 34.694076,9.37167036 C34.694076,10.8440681 33.8687037,11.7316544 32.5124387,11.7316544 Z M32.5124387,10.8689537 C33.2299734,10.8689537 33.6364381,10.3214706 33.6364381,9.37167036 C33.6364381,8.42601771 33.2258258,7.87438699 32.5124387,7.87438699 C31.794904,7.87438699 31.3842917,8.42601771 31.3842917,9.37167036 C31.3842917,10.3214706 31.794904,10.8689537 32.5124387,10.8689537 Z M35.7594165,11.6404072 L35.7594165,7.95319138 L35.0169962,7.95319138 L35.0169962,7.1319667 L35.7594165,7.1319667 L35.7594165,6.65499278 C35.7594165,5.75081612 36.2198,5.30287538 37.2276666,5.30287538 C37.4474894,5.30287538 37.6341314,5.31946578 37.8000354,5.34849898 L37.8000354,6.10336206 C37.7170834,6.09091926 37.5926554,6.08262407 37.4474894,6.08262407 C36.9622203,6.08262407 36.7714307,6.29415163 36.7714307,6.72135437 L36.7714307,7.1319667 L37.7585594,7.1319667 L37.7585594,7.95319138 L36.7838735,7.95319138 L36.7838735,11.6404072 L35.7594165,11.6404072 Z M41.5856085,11.6404072 L40.5155278,11.6404072 L40.5155278,5.65542133 L41.5856085,5.65542133 L41.5856085,11.6404072 Z M42.547259,8.40113211 C42.547259,7.57990744 43.2938269,7.01168632 44.3639075,7.01168632 C45.4422833,7.01168632 46.118342,7.48866025 46.1929988,8.31403252 L45.2266082,8.31403252 C45.1519514,7.99466737 44.8491766,7.791435 44.3680551,7.791435 C43.8993764,7.791435 43.5468304,8.01540537 43.5468304,8.34306572 C43.5468304,8.60021688 43.7625056,8.75782566 44.2187415,8.86151564 L45.0192282,9.04401001 C45.8860765,9.23894718 46.2883936,9.61223112 46.2883936,10.2799946 C46.2883936,11.1509905 45.4879069,11.7316544 44.3556123,11.7316544 C43.2233177,11.7316544 42.5099306,11.2422377 42.4311262,10.4168654 L43.447288,10.4168654 C43.5468304,10.7528209 43.8661956,10.9519057 44.3804979,10.9519057 C44.8989478,10.9519057 45.259789,10.7237878 45.259789,10.3878322 C45.259789,10.130681 45.0648518,9.96892467 44.6335015,9.87352988 L43.8288672,9.68688791 C42.9578713,9.48780314 42.547259,9.08548601 42.547259,8.40113211 Z M46.8394318,8.40113211 C46.8394318,7.57990744 47.5859997,7.01168632 48.6560803,7.01168632 C49.7344561,7.01168632 50.4105148,7.48866025 50.4851716,8.31403252 L49.518781,8.31403252 C49.4441242,7.99466737 49.1413494,7.791435 48.6602279,7.791435 C48.1915492,7.791435 47.8390032,8.01540537 47.8390032,8.34306572 C47.8390032,8.60021688 48.0546784,8.75782566 48.5109143,8.86151564 L49.311401,9.04401001 C50.1782493,9.23894718 50.5805664,9.61223112 50.5805664,10.2799946 C50.5805664,11.1509905 49.7800797,11.7316544 48.6477851,11.7316544 C47.5154905,11.7316544 46.8021034,11.2422377 46.723299,10.4168654 L47.7394608,10.4168654 C47.8390032,10.7528209 48.1583684,10.9519057 48.6726707,10.9519057 C49.1911206,10.9519057 49.5519618,10.7237878 49.5519618,10.3878322 C49.5519618,10.130681 49.3570246,9.96892467 48.9256743,9.87352988 L48.12104,9.68688791 C47.2500441,9.48780314 46.8394318,9.08548601 46.8394318,8.40113211 Z M55.2667611,7.10293351 L55.2667611,11.6404072 L54.2754849,11.6404072 L54.2754849,10.9187249 L54.2049757,10.9187249 C53.9851529,11.4371748 53.5413598,11.7316544 52.8487107,11.7316544 C51.8574345,11.7316544 51.2767705,11.1136621 51.2767705,10.0518767 L51.2767705,7.10293351 L52.3053752,7.10293351 L52.3053752,9.7947255 C52.3053752,10.4873746 52.5915595,10.8274777 53.2054042,10.8274777 C53.8731677,10.8274777 54.2381565,10.4168654 54.2381565,9.7449543 L54.2381565,7.10293351 L55.2667611,7.10293351 Z M58.1280121,7.8287634 C57.5141674,7.8287634 57.0828171,8.26840893 57.0371935,8.93202483 L59.1732072,8.93202483 C59.1524692,8.26011373 58.7460044,7.8287634 58.1280121,7.8287634 Z M59.1815024,10.3919798 L60.1561882,10.3919798 C59.9695463,11.2173521 59.2105356,11.7316544 58.1404549,11.7316544 C56.8049279,11.7316544 56.0002937,10.8482157 56.0002937,9.38826076 C56.0002937,7.92830578 56.8173707,7.01168632 58.1321597,7.01168632 C59.4262107,7.01168632 60.2018118,7.87023939 60.2018118,9.30116117 L60.2018118,9.63296912 L57.0330459,9.63296912 L57.0330459,9.68688791 C57.0579315,10.441751 57.4934294,10.9145773 58.1694881,10.9145773 C58.6796429,10.9145773 59.0321888,10.7279354 59.1815024,10.3919798 Z" id="Name" fill="#ED4679"></path>
                                        <path d="M12.10625,23.6963196 L12.10625,17.8043584 L12.0304082,17.8043584 L10.2907865,19.0652286 L10.2907865,18.164607 L12.1109901,16.8563357 L12.9594705,16.8563357 L12.9594705,23.6963196 L12.10625,23.6963196 Z M14.5910175,18.7855619 C14.5910175,17.5673527 15.52956,16.6951718 16.8378314,16.6951718 C18.03234,16.6951718 18.9471819,17.5057313 18.9471819,18.6149178 C18.9471819,19.4017767 18.6058937,19.9705903 17.3734642,21.2456809 L15.818707,22.8525794 L15.818707,22.9284212 L19.0609446,22.9284212 L19.0609446,23.6963196 L14.6336786,23.6963196 L14.6336786,23.1085455 L16.946854,20.6057655 C17.8190349,19.6624829 18.075001,19.3069744 18.075001,18.70498 C18.075001,17.9797426 17.5867693,17.4393697 16.78095,17.4393697 C15.9609104,17.4393697 15.4157973,17.9750025 15.4157973,18.7855619 L14.5910175,18.7855619 Z M20.0999775,25.1515344 L19.4079209,25.1515344 L21.87278,16.5577085 L22.5648366,16.5577085 L20.0999775,25.1515344 Z M22.959214,18.7855619 C22.959214,17.5673527 23.8977565,16.6951718 25.2060278,16.6951718 C26.4005364,16.6951718 27.3153784,17.5057313 27.3153784,18.6149178 C27.3153784,19.4017767 26.9740902,19.9705903 25.7416607,21.2456809 L24.1869034,22.8525794 L24.1869034,22.9284212 L27.4291411,22.9284212 L27.4291411,23.6963196 L23.001875,23.6963196 L23.001875,23.1085455 L25.3150504,20.6057655 C26.1872313,19.6624829 26.4431975,19.3069744 26.4431975,18.70498 C26.4431975,17.9797426 25.9549658,17.4393697 25.1491465,17.4393697 C24.3291068,17.4393697 23.7839938,17.9750025 23.7839938,18.7855619 L22.959214,18.7855619 Z M30.8003098,23.8574834 C29.2597729,23.8574834 28.3733717,22.5492121 28.3733717,20.2739576 C28.3733717,18.0176635 29.2692532,16.6951718 30.8003098,16.6951718 C32.3218863,16.6951718 33.2177678,18.0224036 33.2177678,20.2881779 C33.2177678,22.5586923 32.3361066,23.8574834 30.8003098,23.8574834 Z M30.8003098,23.1132856 C31.809954,23.1132856 32.3598072,22.1083815 32.3598072,20.2739576 C32.3598072,18.4584941 31.8004738,17.4441098 30.8003098,17.4441098 C29.8001459,17.4441098 29.2313323,18.4679743 29.2313323,20.2739576 C29.2313323,22.1036414 29.7906657,23.1132856 30.8003098,23.1132856 Z" id="John-Johnson" fill="#0A0830"></path>
                                    </g>
                                    <g id="line/list" fill="none" transform="translate(-0.000000, 122.252733)" opacity="0.0599999987" stroke-linecap="square" stroke-width="1.2438058">
                                        <path d="M0,1.2438058 L219.982908,1.2438058" id="Line" stroke="#2D2B64"></path>
                                    </g>
                                    <g id="field-name" stroke-width="1" fill="none" fill-rule="evenodd" transform="translate(9.950446, 71.256696)">
                                        <g id="bg">
                                            <g id="bg-back">
                                                <use fill="black" fill-opacity="1" filter="url(#filter-12)" xlink:href="#path-11"></use>
                                                <use fill="#FAFAFE" fill-rule="evenodd" xlink:href="#path-11"></use>
                                            </g>
                                            <g id="icons/fields/arrow_foward" transform="translate(179.593423, 8.494283)">
                                                <rect id="bound" fill="#D8D8D8" opacity="0" x="0" y="0" width="14.5616289" height="13.0014543"></rect>
                                                <path d="M6.9622788,3.17885559 L6.9622788,3.17885559 C6.78635643,3.35477796 6.78635643,3.64000448 6.9622788,3.81592685 L9.19202822,6.04567627 L4.09545812,6.04567627 C3.84414044,6.04567627 3.64040721,6.24940949 3.64040721,6.50072717 L3.64040721,6.50072717 C3.64040721,6.75204484 3.84414044,6.95577807 4.09545812,6.95577807 L9.19202822,6.95577807 L6.9622788,9.18552749 C6.78635643,9.36144986 6.78635643,9.64667638 6.9622788,9.82259875 L6.9622788,9.82259875 C7.13820117,9.99852112 7.42342769,9.99852112 7.59935006,9.82259875 L10.4921955,6.92975327 C10.7291401,6.6928087 10.7291401,6.30864564 10.4921955,6.07170106 L7.59935006,3.17885559 C7.42342769,3.00293321 7.13820117,3.00293321 6.9622788,3.17885559 Z" id="Shape" fill="#0A0830"></path>
                                            </g>
                                        </g>
                                        <path d="M11.4787775,11.6404072 L10.4460253,11.6404072 L10.4460253,5.65542133 L11.3750875,5.65542133 L14.3115879,9.72421631 L14.3820971,9.72421631 L14.3820971,5.65542133 L15.4107017,5.65542133 L15.4107017,11.6404072 L14.485787,11.6404072 L11.5492867,7.56746464 L11.4787775,7.56746464 L11.4787775,11.6404072 Z M18.0313919,10.9062821 C18.6535318,10.9062821 19.118063,10.503965 19.118063,9.97721987 L19.118063,9.61637872 L18.0936059,9.68274031 C17.5170896,9.72006871 17.2474957,9.92744868 17.2474957,10.296585 C17.2474957,10.6781642 17.575156,10.9062821 18.0313919,10.9062821 Z M17.7286172,11.715064 C16.8534737,11.715064 16.2271862,11.1841713 16.2271862,10.3546514 C16.2271862,9.53342674 16.8451785,9.06060041 17.94844,8.99423882 L19.118063,8.92372963 L19.118063,8.54215049 C19.118063,8.09835736 18.8194358,7.84950139 18.2636575,7.84950139 C17.7908312,7.84950139 17.4673184,8.01540537 17.3719236,8.32232772 L16.4013854,8.32232772 C16.4843374,7.52184104 17.2350529,7.01168632 18.3134287,7.01168632 C19.4789041,7.01168632 20.1342248,7.57990744 20.1342248,8.54215049 L20.1342248,11.6404072 L19.1429486,11.6404072 L19.1429486,11.0182673 L19.0724394,11.0182673 C18.8194358,11.4579128 18.3217239,11.715064 17.7286172,11.715064 Z M21.3945025,5.99137688 L22.4189595,5.99137688 L22.4189595,7.1319667 L23.3894978,7.1319667 L23.3894978,7.95319138 L22.4189595,7.95319138 L22.4189595,10.1804522 C22.4189595,10.628393 22.6097491,10.8274777 23.0410994,10.8274777 C23.1862654,10.8274777 23.2650698,10.8191825 23.3894978,10.8067397 L23.3894978,11.611374 C23.2401842,11.6404072 23.0493946,11.6611452 22.8503099,11.6611452 C21.8092624,11.6611452 21.3945025,11.3085993 21.3945025,10.4293082 L21.3945025,7.95319138 L20.6769678,7.95319138 L20.6769678,7.1319667 L21.3945025,7.1319667 L21.3945025,5.99137688 Z M24.1271779,11.6404072 L24.1271779,7.10293351 L25.151635,7.10293351 L25.151635,11.6404072 L24.1271779,11.6404072 Z M24.6373326,6.35221802 C24.3013771,6.35221802 24.0234879,6.07847647 24.0234879,5.73422572 C24.0234879,5.38997497 24.3013771,5.11208581 24.6373326,5.11208581 C24.9774358,5.11208581 25.2511773,5.38997497 25.2511773,5.73422572 C25.2511773,6.07847647 24.9774358,6.35221802 24.6373326,6.35221802 Z M28.0792476,11.7316544 C26.718835,11.7316544 25.8976103,10.8440681 25.8976103,9.37167036 C25.8976103,7.90756779 26.7312778,7.01168632 28.0792476,7.01168632 C29.4313649,7.01168632 30.2608848,7.90342019 30.2608848,9.37167036 C30.2608848,10.8440681 29.4355125,11.7316544 28.0792476,11.7316544 Z M28.0792476,10.8689537 C28.7967822,10.8689537 29.203247,10.3214706 29.203247,9.37167036 C29.203247,8.42601771 28.7926346,7.87438699 28.0792476,7.87438699 C27.3617129,7.87438699 26.9511005,8.42601771 26.9511005,9.37167036 C26.9511005,10.3214706 27.3617129,10.8689537 28.0792476,10.8689537 Z M30.9944174,11.6404072 L30.9944174,7.10293351 L31.9856936,7.10293351 L31.9856936,7.8287634 L32.0562028,7.8287634 C32.271878,7.32275628 32.7281139,7.01168632 33.4041726,7.01168632 C34.4161868,7.01168632 34.9678175,7.62138343 34.9678175,8.70390686 L34.9678175,11.6404072 L33.9392129,11.6404072 L33.9392129,8.94861523 C33.9392129,8.25596613 33.6488809,7.90756779 33.0225934,7.90756779 C32.4087487,7.90756779 32.023022,8.33062292 32.023022,8.99838642 L32.023022,11.6404072 L30.9944174,11.6404072 Z M37.4350466,10.9062821 C38.0571865,10.9062821 38.5217177,10.503965 38.5217177,9.97721987 L38.5217177,9.61637872 L37.4972606,9.68274031 C36.9207443,9.72006871 36.6511503,9.92744868 36.6511503,10.296585 C36.6511503,10.6781642 36.9788107,10.9062821 37.4350466,10.9062821 Z M37.1322719,11.715064 C36.2571284,11.715064 35.6308409,11.1841713 35.6308409,10.3546514 C35.6308409,9.53342674 36.2488332,9.06060041 37.3520946,8.99423882 L38.5217177,8.92372963 L38.5217177,8.54215049 C38.5217177,8.09835736 38.2230905,7.84950139 37.6673122,7.84950139 C37.1944859,7.84950139 36.8709731,8.01540537 36.7755783,8.32232772 L35.8050401,8.32232772 C35.8879921,7.52184104 36.6387075,7.01168632 37.7170834,7.01168632 C38.8825588,7.01168632 39.5378795,7.57990744 39.5378795,8.54215049 L39.5378795,11.6404072 L38.5466032,11.6404072 L38.5466032,11.0182673 L38.4760941,11.0182673 C38.2230905,11.4579128 37.7253786,11.715064 37.1322719,11.715064 Z M40.5119728,11.6404072 L40.5119728,5.34849898 L41.5405774,5.34849898 L41.5405774,11.6404072 L40.5119728,11.6404072 Z M42.5478515,11.6404072 L42.5478515,7.10293351 L43.5723086,7.10293351 L43.5723086,11.6404072 L42.5478515,11.6404072 Z M43.0580063,6.35221802 C42.7220507,6.35221802 42.4441615,6.07847647 42.4441615,5.73422572 C42.4441615,5.38997497 42.7220507,5.11208581 43.0580063,5.11208581 C43.3981094,5.11208581 43.671851,5.38997497 43.671851,5.73422572 C43.671851,6.07847647 43.3981094,6.35221802 43.0580063,6.35221802 Z M44.8699146,5.99137688 L45.8943717,5.99137688 L45.8943717,7.1319667 L46.8649099,7.1319667 L46.8649099,7.95319138 L45.8943717,7.95319138 L45.8943717,10.1804522 C45.8943717,10.628393 46.0851612,10.8274777 46.5165116,10.8274777 C46.6616775,10.8274777 46.7404819,10.8191825 46.8649099,10.8067397 L46.8649099,11.611374 C46.7155963,11.6404072 46.5248068,11.6611452 46.325722,11.6611452 C45.2846746,11.6611452 44.8699146,11.3085993 44.8699146,10.4293082 L44.8699146,7.95319138 L44.1523799,7.95319138 L44.1523799,7.1319667 L44.8699146,7.1319667 L44.8699146,5.99137688 Z M48.0878592,13.2870042 C48.0256452,13.2870042 47.747756,13.2828566 47.6813944,13.2704138 L47.6813944,12.4284511 C47.7394608,12.4408939 47.892922,12.4450415 47.9634312,12.4450415 C48.3989291,12.4450415 48.6436375,12.2791375 48.7763607,11.86023 L48.8302795,11.6611452 L47.2085681,7.10293351 L48.3367151,7.10293351 L49.3985006,10.6449834 L49.4690098,10.6449834 L50.5266476,7.10293351 L51.6133186,7.10293351 L49.9750169,11.7855732 C49.5892902,12.9137202 49.104021,13.2870042 48.0878592,13.2870042 Z" id="Name" fill="#ED4679"></path>
                                        <path d="M11.4331539,17.6147539 L11.4331539,20.2312966 L13.1158942,20.2312966 C13.9928152,20.2312966 14.4905272,19.7620253 14.4905272,18.9230252 C14.4905272,18.1029856 13.9596344,17.6147539 13.0779733,17.6147539 L11.4331539,17.6147539 Z M11.4331539,20.9897147 L11.4331539,23.6963196 L10.5799335,23.6963196 L10.5799335,16.8563357 L13.191736,16.8563357 C14.5094876,16.8563357 15.3721883,17.662155 15.3721883,18.8945845 C15.3721883,19.8473474 14.8555159,20.5868051 13.9975553,20.8569915 L15.5807533,23.6963196 L14.5805893,23.6963196 L13.1158942,20.9897147 L11.4331539,20.9897147 Z M20.5872612,18.5864772 L20.5872612,23.6963196 L19.8098826,23.6963196 L19.8098826,22.8952404 L19.7340408,22.8952404 C19.4780746,23.464054 18.9329616,23.7863817 18.1508428,23.7863817 C17.0037354,23.7863817 16.406481,23.1038054 16.406481,21.8950764 L16.406481,18.5864772 L17.2217806,18.5864772 L17.2217806,21.6959916 C17.2217806,22.6155737 17.5630688,23.0421839 18.3783683,23.0421839 C19.2789899,23.0421839 19.7719617,22.5065511 19.7719617,21.6106696 L19.7719617,18.5864772 L20.5872612,18.5864772 Z M21.6405144,19.9848107 C21.6405144,19.1363303 22.4605541,18.496415 23.5460401,18.496415 C24.6173057,18.496415 25.3615036,19.0273077 25.4705262,19.8663078 L24.6647069,19.8663078 C24.5556843,19.458658 24.1575147,19.1884716 23.5413,19.1884716 C22.9345654,19.1884716 22.4605541,19.496579 22.4605541,19.9516299 C22.4605541,20.3023983 22.7449609,20.5204435 23.3469553,20.667387 L24.1338142,20.8569915 C25.0960572,21.0892571 25.5605883,21.5063871 25.5605883,22.2411047 C25.5605883,23.1559466 24.6741871,23.7863817 23.5128593,23.7863817 C22.375232,23.7863817 21.5931133,23.2412687 21.5030511,22.3927883 L22.3420512,22.3927883 C22.4795145,22.8241387 22.8871643,23.0990653 23.5413,23.0990653 C24.2286164,23.0990653 24.7215882,22.7719974 24.7215882,22.3027262 C24.7215882,21.9519578 24.4561419,21.7149521 23.9110288,21.5822289 L23.0341078,21.3689238 C22.0766049,21.1366582 21.6405144,20.7242684 21.6405144,19.9848107 Z M26.2630732,19.9848107 C26.2630732,19.1363303 27.0831128,18.496415 28.1685988,18.496415 C29.2398645,18.496415 29.9840623,19.0273077 30.0930849,19.8663078 L29.2872656,19.8663078 C29.178243,19.458658 28.7800735,19.1884716 28.1638587,19.1884716 C27.5571242,19.1884716 27.0831128,19.496579 27.0831128,19.9516299 C27.0831128,20.3023983 27.3675196,20.5204435 27.969514,20.667387 L28.7563729,20.8569915 C29.7186159,21.0892571 30.1831471,21.5063871 30.1831471,22.2411047 C30.1831471,23.1559466 29.2967458,23.7863817 28.135418,23.7863817 C26.9977908,23.7863817 26.215672,23.2412687 26.1256099,22.3927883 L26.96461,22.3927883 C27.1020733,22.8241387 27.509723,23.0990653 28.1638587,23.0990653 C28.8511752,23.0990653 29.344147,22.7719974 29.344147,22.3027262 C29.344147,21.9519578 29.0787006,21.7149521 28.5335876,21.5822289 L27.6566665,21.3689238 C26.6991636,21.1366582 26.2630732,20.7242684 26.2630732,19.9848107 Z M31.1178975,23.6963196 L31.1178975,18.5864772 L31.933197,18.5864772 L31.933197,23.6963196 L31.1178975,23.6963196 Z M31.5255472,17.6005335 C31.2126997,17.6005335 30.9567336,17.3445674 30.9567336,17.0317199 C30.9567336,16.7188724 31.2126997,16.4629063 31.5255472,16.4629063 C31.8383947,16.4629063 32.0943608,16.7188724 32.0943608,17.0317199 C32.0943608,17.3445674 31.8383947,17.6005335 31.5255472,17.6005335 Z M34.6976312,23.0706246 C35.5366313,23.0706246 36.1575862,22.5207714 36.1575862,21.7907939 L36.1575862,21.3215227 L34.7829532,21.4115848 C34.0055746,21.4637261 33.6642864,21.7339126 33.6642864,22.2458448 C33.6642864,22.7672573 34.105117,23.0706246 34.6976312,23.0706246 Z M34.5459476,23.7863817 C33.5552638,23.7863817 32.8205462,23.1986076 32.8205462,22.2648053 C32.8205462,21.3499634 33.4936424,20.8238108 34.6834109,20.752709 L36.1575862,20.6626469 L36.1575862,20.1981158 C36.1575862,19.5676807 35.7641568,19.2216524 35.0009985,19.2216524 C34.3895238,19.2216524 33.9629136,19.4539179 33.8491509,19.8568276 L33.0243711,19.8568276 C33.1333937,19.0367879 33.939213,18.496415 35.0294392,18.496415 C36.276089,18.496415 36.9728857,19.1363303 36.9728857,20.1981158 L36.9728857,23.6963196 L36.1955071,23.6963196 L36.1955071,22.9426415 L36.1196653,22.9426415 C35.7878573,23.4877546 35.2285239,23.7863817 34.5459476,23.7863817 Z" id="John-Johnson" fill="#0A0830"></path>
                                    </g>
                                    <path d="M10.4066823,5.45277214 L11.6177813,5.45277214 C11.6758477,5.93804126 12.1652644,6.24911121 12.8703563,6.24911121 C13.5215294,6.24911121 13.981913,5.93389366 13.981913,5.48180533 C13.981913,5.10022619 13.6832858,4.88040342 12.9491607,4.72279465 L12.169412,4.55689067 C11.0785934,4.32877271 10.5435531,3.7605516 10.5435531,2.84807973 C10.5435531,1.71993271 11.4518774,0.977512421 12.8330279,0.977512421 C14.1519645,0.977512421 15.0851744,1.71578511 15.1225028,2.78171815 L13.9445846,2.78171815 C13.8865182,2.30889182 13.4468726,1.99367427 12.8413231,1.99367427 C12.2150356,1.99367427 11.8002757,2.28400622 11.8002757,2.74024215 C11.8002757,3.10937849 12.0864601,3.32090606 12.7874044,3.47021964 L13.5090866,3.62368082 C14.7118905,3.87668438 15.2303404,4.3951343 15.2303404,5.32419656 C15.2303404,6.53114797 14.3054257,7.26942066 12.8039947,7.26942066 C11.3772206,7.26942066 10.4523059,6.56847637 10.4066823,5.45277214 Z M16.3936827,1.45448635 L17.6006341,1.45448635 L17.6006341,2.58678097 L18.5504344,2.58678097 L18.5504344,3.53658123 L17.6006341,3.53658123 L17.6006341,5.59379051 C17.6006341,5.99196005 17.7831285,6.17445443 18.1937409,6.17445443 C18.3513496,6.17445443 18.4343016,6.17030683 18.5504344,6.15786403 L18.5504344,7.07863109 C18.4011208,7.10766428 18.1771505,7.13254988 17.9448849,7.13254988 C16.8333283,7.13254988 16.3936827,6.77170873 16.3936827,5.87997487 L16.3936827,3.53658123 L15.6802956,3.53658123 L15.6802956,2.58678097 L16.3936827,2.58678097 L16.3936827,1.45448635 Z M21.2566837,3.36652966 C20.6967578,3.36652966 20.3027359,3.756404 20.2612599,4.3495107 L22.2106316,4.3495107 C22.185746,3.7439612 21.8207572,3.36652966 21.2566837,3.36652966 Z M22.2355172,5.81361328 L23.3595166,5.81361328 C23.1811698,6.67216635 22.3889783,7.21550187 21.2691265,7.21550187 C19.8755331,7.21550187 19.0543085,6.3362108 19.0543085,4.85137023 C19.0543085,3.36238206 19.8921235,2.441615 21.2525361,2.441615 C22.6005059,2.441615 23.396845,3.30016807 23.396845,4.75182784 L23.396845,5.12096419 L20.2571123,5.12096419 L20.2571123,5.18317818 C20.2737027,5.86338447 20.6718722,6.28643961 21.3023073,6.28643961 C21.7792812,6.28643961 22.1069416,6.11638803 22.2355172,5.81361328 Z M26.7833006,2.46650059 C27.9404808,2.46650059 28.6497203,3.34579166 28.6497203,4.82648463 C28.6497203,6.30303001 27.948776,7.18646867 26.8040386,7.18646867 C26.1487179,7.18646867 25.6468584,6.90028431 25.422888,6.41501519 L25.3482312,6.41501519 L25.3482312,8.63398085 L24.1412798,8.63398085 L24.1412798,2.54115738 L25.3109028,2.54115738 L25.3109028,3.29187287 L25.3855596,3.29187287 C25.6344156,2.77757055 26.1528655,2.46650059 26.7833006,2.46650059 Z M26.3726883,6.17860202 C27.0238614,6.17860202 27.4095881,5.6725949 27.4095881,4.82648463 C27.4095881,3.98866956 27.0197138,3.47851484 26.3768359,3.47851484 C25.733958,3.47851484 25.3357884,3.99281716 25.3357884,4.83063223 C25.3357884,5.6684473 25.733958,6.17860202 26.3726883,6.17860202 Z M32.7847584,7.11595948 L32.7847584,2.35036781 L32.7101016,2.35036781 L31.2418514,3.36238206 L31.2418514,2.19690663 L32.788906,1.1309736 L34.0373334,1.1309736 L34.0373334,7.11595948 L32.7847584,7.11595948 Z M39.429094,7.21550187 C38.0230578,7.21550187 37.1769475,6.323768 37.1769475,4.82648463 C37.1769475,3.34579166 38.0355006,2.441615 39.429094,2.441615 C40.8226874,2.441615 41.6812405,3.34164406 41.6812405,4.82648463 C41.6812405,6.323768 40.8351302,7.21550187 39.429094,7.21550187 Z M39.429094,6.22837322 C40.0719719,6.22837322 40.4411082,5.7140709 40.4411082,4.82648463 C40.4411082,3.94719357 40.0678243,3.42874365 39.429094,3.42874365 C38.7862161,3.42874365 38.4170798,3.94719357 38.4170798,4.82648463 C38.4170798,5.7182185 38.7820685,6.22837322 39.429094,6.22837322 Z M42.7740736,7.11595948 L42.7740736,3.53658123 L42.0358009,3.53658123 L42.0358009,2.58678097 L42.7740736,2.58678097 L42.7740736,2.12224985 C42.7740736,1.21392559 43.2386048,0.753542056 44.3418662,0.753542056 C44.5865745,0.753542056 44.7898069,0.770132453 44.9640061,0.799165649 L44.9640061,1.65357112 C44.8852017,1.64527592 44.7607737,1.63283312 44.6031649,1.63283312 C44.1303386,1.63283312 43.9561394,1.81947509 43.9561394,2.20934943 L43.9561394,2.58678097 L44.9266777,2.58678097 L44.9266777,3.53658123 L43.981025,3.53658123 L43.981025,7.11595948 L42.7740736,7.11595948 Z M49.0368301,4.50711948 L49.0368301,3.59050002 L49.783398,3.59050002 C50.3516191,3.59050002 50.7373459,3.25454447 50.7373459,2.76512775 C50.7373459,2.31718702 50.3847999,1.97708387 49.7999884,1.97708387 C49.1944389,1.97708387 48.821155,2.28815382 48.779679,2.82319414 L47.6224987,2.82319414 C47.6639747,1.71993271 48.5142326,0.977512421 49.8622024,0.977512421 C51.1894342,0.977512421 51.9277069,1.71163751 51.9235593,2.58678097 C51.9194117,3.31261086 51.4631758,3.78958479 50.8202979,3.94719357 L50.8202979,4.02599795 C51.6539653,4.14627834 52.1599725,4.67717105 52.1599725,5.47765773 C52.1599725,6.52700037 51.1728438,7.26942066 49.8207264,7.26942066 C48.468609,7.26942066 47.547842,6.53114797 47.4939232,5.39885334 L48.6925794,5.39885334 C48.7299078,5.90486047 49.1612581,6.22837322 49.804136,6.22837322 C50.4387187,6.22837322 50.8825118,5.88412247 50.8825118,5.36567255 C50.8825118,4.83477983 50.4677519,4.50711948 49.7958408,4.50711948 L49.0368301,4.50711948 Z" id="Step-1-of-3" fill="#0A0830" fill-rule="evenodd" opacity="0.24"></path>
                                    <g id="button" stroke-width="1" fill="none" fill-rule="evenodd" transform="translate(9.950446, 286.435099)">
                                        <g id="button-bg">
                                            <use fill="black" fill-opacity="1" filter="url(#filter-14)" xlink:href="#path-13"></use>
                                            <use fill="#ED4679" fill-rule="evenodd" xlink:href="#path-13"></use>
                                        </g>
                                        <path d="M90.108196,16.4942835 L88.9095398,16.4942835 L88.9095398,10.5092976 L89.9547348,10.5092976 L92.7087408,14.2379894 L92.7833976,14.2379894 L92.7833976,10.5092976 L93.9820538,10.5092976 L93.9820538,16.4942835 L92.945154,16.4942835 L90.1828528,12.7490013 L90.108196,12.7490013 L90.108196,16.4942835 Z M99.1561248,15.4242029 L99.1561248,16.4942835 L95.1910198,16.4942835 L95.1910198,10.5092976 L99.1561248,10.5092976 L99.1561248,11.5793783 L96.4435948,11.5793783 L96.4435948,12.9771192 L99.0026636,12.9771192 L99.0026636,13.9683955 L96.4435948,13.9683955 L96.4435948,15.4242029 L99.1561248,15.4242029 Z M99.8715264,16.4942835 L101.78357,13.4789788 L99.8839692,10.5092976 L101.356367,10.5092976 L102.604794,12.6038353 L102.679451,12.6038353 L103.940321,10.5092976 L105.34221,10.5092976 L103.3721,13.4997168 L105.313177,16.4942835 L103.886403,16.4942835 L102.600647,14.4661074 L102.52599,14.4661074 L101.223644,16.4942835 L99.8715264,16.4942835 Z M108.890422,16.4942835 L107.637847,16.4942835 L107.637847,11.5793783 L105.841936,11.5793783 L105.841936,10.5092976 L110.686332,10.5092976 L110.686332,11.5793783 L108.890422,11.5793783 L108.890422,16.4942835 Z" id="OKAY!" fill="#F7F6FF"></path>
                                    </g>
                                </g>
                            </g>
                            <g id="assets/nav-bar" mask="url(#mask-4)">
                                <g transform="translate(1.238212, 409.848266)">
                                    <rect id="navbar-bg" stroke="none" fill="#F5F6FF" fill-rule="evenodd" x="0" y="0" width="219.163574" height="28.4788825"></rect>
                                    <rect id="recent" stroke="#302471" stroke-width="1.21757541" fill="none" x="166.807831" y="9.97792731" width="8.52302788" height="8.52302788" rx="1.21757541"></rect>
                                    <circle id="home" stroke="#302471" stroke-width="1.21757541" fill="none" cx="109.581787" cy="14.2394413" r="4.26151394"></circle>
                                    <path d="M52.3557425,10.4207773 C52.3557425,10.3137975 52.327552,10.2087065 52.2740104,10.1160892 C52.1057358,9.82500441 51.7333514,9.72544715 51.4422666,9.89372179 L45.3488273,13.4163087 C45.2565093,13.4696773 45.1798285,13.5463581 45.1264599,13.6386761 C44.9581853,13.9297609 45.0577425,14.3021452 45.3488273,14.4704199 L51.4422668,17.9930071 C51.5348841,18.0465487 51.6399751,18.0747392 51.746955,18.0747392 C52.0831792,18.0747392 52.3557427,17.8021757 52.3557427,17.4659515 L52.3557425,10.4207773 Z" id="back" stroke="#302471" stroke-width="1.21757541" fill="none"></path>
                                </g>
                            </g>
                            <g id="app-bar+status-bar" mask="url(#mask-4)">
                                <g transform="translate(1.238212, 0.000000)">
                                    <g id="bg-app-bar">
                                        <use fill="black" fill-opacity="1" filter="url(#filter-16)" xlink:href="#path-15"></use>
                                        <use fill="#2D2B64" fill-rule="evenodd" xlink:href="#path-15"></use>
                                    </g>
                                    <g id="app-bar-content" stroke-width="1" fill-rule="evenodd" transform="translate(0.000000, 14.610905)"></g>
                                    <g id="bar/table-content" stroke-width="1" fill-rule="evenodd" transform="translate(0.000000, 14.610905)">
                                        <rect id="bg" fill="#2D2B64" x="0" y="0" width="219.163574" height="36.5272623"></rect>
                                        <g id="icon-chevron" transform="translate(9.740603, 10.349391)">
                                            <rect id="bound" fill="#D8D8D8" opacity="0" x="0" y="0" width="14.6109049" height="14.6109049"></rect>
                                            <path d="M10.088482,3.00335268 L10.088482,3.00335268 C9.74567956,2.68340375 9.213709,2.68340375 8.87090657,3.00335268 L5.40594741,6.23731457 C4.81603113,6.78790309 4.78414969,7.7124649 5.33473821,8.30238118 C5.35764931,8.32692878 5.38139981,8.35067928 5.40594741,8.37359037 L8.87090657,11.6075523 C9.213709,11.9275012 9.74567956,11.9275012 10.088482,11.6075523 L10.088482,11.6075523 C10.4022912,11.3146637 10.4192507,10.8228379 10.1263621,10.5090287 C10.1141744,10.4959704 10.1015402,10.4833362 10.088482,10.4711485 L7.07814259,7.66149844 C6.88150383,7.47796893 6.87087668,7.16978166 7.05440619,6.9731429 C7.06204322,6.96496037 7.06996005,6.95704353 7.07814259,6.9494065 L10.088482,4.1397564 C10.4022912,3.84686779 10.4192507,3.35504203 10.1263621,3.04123281 C10.1141744,3.02817457 10.1015402,3.01554036 10.088482,3.00335268 Z" id="chevron" fill="#F7F6FF"></path>
                                        </g>
                                        <path d="M44.8731235,13.7704783 L48.4521293,13.7704783 C50.2178515,13.7704783 51.4247256,14.9535716 51.4247256,16.7371293 C51.4247256,18.5028515 50.17029,19.6859448 48.3629515,19.6859448 L46.6685716,19.6859448 L46.6685716,22.349391 L44.8731235,22.349391 L44.8731235,13.7704783 Z M46.6685716,15.244886 L46.6685716,18.2293726 L47.9705688,18.2293726 C48.999087,18.2293726 49.5995515,17.7061957 49.5995515,16.7430745 C49.5995515,15.768063 49.0109774,15.244886 47.9765139,15.244886 L46.6685716,15.244886 Z M52.5398058,22.349391 L52.5398058,15.7918437 L54.2163501,15.7918437 L54.2163501,16.8381976 L54.3233636,16.8381976 C54.4957741,16.1842264 55.1735261,15.6848303 56.005853,15.6848303 C56.2436607,15.6848303 56.5349752,15.7145562 56.683605,15.768063 L56.683605,17.343539 C56.5468655,17.2900322 56.1425925,17.2365255 55.8631684,17.2365255 C54.9178828,17.2365255 54.2698568,17.7953736 54.2698568,18.7168784 L54.2698568,22.349391 L52.5398058,22.349391 Z M60.230269,22.4920756 C58.2148487,22.4920756 57.0020295,21.2138592 57.0020295,19.0676448 C57.0020295,16.9452111 58.2326843,15.6491591 60.230269,15.6491591 C62.2278536,15.6491591 63.4585084,16.9392659 63.4585084,19.0676448 C63.4585084,21.2138592 62.2456892,22.4920756 60.230269,22.4920756 Z M60.230269,21.0771198 C61.1517738,21.0771198 61.6808959,20.339916 61.6808959,19.0676448 C61.6808959,17.807264 61.1458286,17.0641149 60.230269,17.0641149 C59.3087641,17.0641149 58.779642,17.807264 58.779642,19.0676448 C58.779642,20.3458611 59.3028189,21.0771198 60.230269,21.0771198 Z M65.0075878,22.349391 L65.0075878,17.2186899 L63.9493435,17.2186899 L63.9493435,15.8572409 L65.0075878,15.8572409 L65.0075878,15.1913793 C65.0075878,13.8893822 65.6734493,13.2294658 67.2548705,13.2294658 C67.6056369,13.2294658 67.8969513,13.2532466 68.1466494,13.2948629 L68.1466494,14.5195726 C68.0336907,14.5076822 67.8553349,14.4898466 67.6294176,14.4898466 C66.9516657,14.4898466 66.7019676,14.7573803 66.7019676,15.3162283 L66.7019676,15.8572409 L68.0931426,15.8572409 L68.0931426,17.2186899 L66.7376388,17.2186899 L66.7376388,22.349391 L65.0075878,22.349391 Z M69.119045,22.349391 L69.119045,15.7918437 L70.849096,15.7918437 L70.849096,22.349391 L69.119045,22.349391 Z M69.9870431,14.810887 C69.4519758,14.810887 69.0060864,14.3709427 69.0060864,13.8180398 C69.0060864,13.265137 69.4519758,12.8311379 69.9870431,12.8311379 C70.5280556,12.8311379 70.9679999,13.265137 70.9679999,13.8180398 C70.9679999,14.3709427 70.5280556,14.810887 69.9870431,14.810887 Z M72.2911619,22.349391 L72.2911619,13.2889177 L74.0212129,13.2889177 L74.0212129,22.349391 L72.2911619,22.349391 Z M78.2872452,16.974937 C77.4846442,16.974937 76.9198509,17.5337851 76.860399,18.3839476 L79.6546394,18.3839476 C79.6189683,17.5159495 79.0957913,16.974937 78.2872452,16.974937 Z M79.6903106,20.4826006 L81.3014577,20.4826006 C81.0458145,21.7132554 79.9102827,22.4920756 78.3050807,22.4920756 C76.3074961,22.4920756 75.130348,21.2316948 75.130348,19.1033159 C75.130348,16.9689918 76.3312769,15.6491591 78.2813,15.6491591 C80.2134875,15.6491591 81.3549645,16.879814 81.3549645,18.9606313 L81.3549645,19.4897534 L76.8544538,19.4897534 L76.8544538,19.5789313 C76.8782346,20.5539429 77.448973,21.1603525 78.3526423,21.1603525 C79.0363394,21.1603525 79.5060096,20.9165996 79.6903106,20.4826006 Z M84.9644097,19.9653688 L86.7004059,19.9653688 C86.7836385,20.6609563 87.4851713,21.1068458 88.495854,21.1068458 C89.4292492,21.1068458 90.0891655,20.6550112 90.0891655,20.0069852 C90.0891655,19.4600275 89.6611117,19.1449323 88.6088126,18.919015 L87.4911164,18.6812073 C85.9275308,18.3542217 85.160601,17.5397303 85.160601,16.231788 C85.160601,14.6146956 86.4625982,13.5505062 88.4423472,13.5505062 C90.3329184,13.5505062 91.6705867,14.6087504 91.7240935,16.1366649 L90.0356588,16.1366649 C89.9524261,15.458913 89.3222357,15.0070783 88.4542376,15.0070783 C87.5565136,15.0070783 86.9619943,15.4232418 86.9619943,16.077213 C86.9619943,16.6063351 87.3722126,16.9095399 88.3769501,17.1235668 L89.4114136,17.343539 C91.1355194,17.7061957 91.8786685,18.4493448 91.8786685,19.7810679 C91.8786685,21.5111189 90.5528906,22.5693631 88.4007309,22.5693631 C86.3555847,22.5693631 85.0298068,21.5646256 84.9644097,19.9653688 Z M95.8712219,16.974937 C95.0686209,16.974937 94.5038276,17.5337851 94.4443757,18.3839476 L97.2386161,18.3839476 C97.202945,17.5159495 96.6797681,16.974937 95.8712219,16.974937 Z M97.2742873,20.4826006 L98.8854345,20.4826006 C98.6297912,21.7132554 97.4942594,22.4920756 95.8890575,22.4920756 C93.8914728,22.4920756 92.7143247,21.2316948 92.7143247,19.1033159 C92.7143247,16.9689918 93.9152536,15.6491591 95.8652767,15.6491591 C97.7974642,15.6491591 98.9389412,16.879814 98.9389412,18.9606313 L98.9389412,19.4897534 L94.4384305,19.4897534 L94.4384305,19.5789313 C94.4622113,20.5539429 95.0329498,21.1603525 95.936619,21.1603525 C96.6203161,21.1603525 97.0899863,20.9165996 97.2742873,20.4826006 Z M100.482075,14.2342033 L102.212126,14.2342033 L102.212126,15.8572409 L103.573575,15.8572409 L103.573575,17.2186899 L102.212126,17.2186899 L102.212126,20.1675054 C102.212126,20.7382438 102.473715,20.9998323 103.062289,20.9998323 C103.288206,20.9998323 103.40711,20.9938871 103.573575,20.9760515 L103.573575,22.2958843 C103.359548,22.3375006 103.038508,22.3731718 102.705577,22.3731718 C101.112266,22.3731718 100.482075,21.85594 100.482075,20.5777237 L100.482075,17.2186899 L99.4595022,17.2186899 L99.4595022,15.8572409 L100.482075,15.8572409 L100.482075,14.2342033 Z M110.580341,15.7918437 L110.580341,22.349391 L108.903797,22.349391 L108.903797,21.2970919 L108.796784,21.2970919 C108.487634,22.0580766 107.875279,22.4920756 106.882432,22.4920756 C105.467476,22.4920756 104.587587,21.5884064 104.587587,20.0664371 L104.587587,15.7918437 L106.317638,15.7918437 L106.317638,19.6205477 C106.317638,20.5242169 106.727857,20.9879419 107.524512,20.9879419 C108.386565,20.9879419 108.85029,20.4469294 108.85029,19.5729861 L108.85029,15.7918437 L110.580341,15.7918437 Z M115.738153,15.6848303 C117.396861,15.6848303 118.413489,16.9452111 118.413489,19.0676448 C118.413489,21.1841333 117.408752,22.4504593 115.767878,22.4504593 C114.828538,22.4504593 114.10917,22.040241 113.788129,21.3446535 L113.681116,21.3446535 L113.681116,24.5253314 L111.951065,24.5253314 L111.951065,15.7918437 L113.627609,15.7918437 L113.627609,16.8679236 L113.734623,16.8679236 C114.091334,16.1307197 114.834483,15.6848303 115.738153,15.6848303 Z M115.149578,21.0057775 C116.082974,21.0057775 116.635877,20.280464 116.635877,19.0676448 C116.635877,17.8667159 116.077028,17.1354572 115.155524,17.1354572 C114.234019,17.1354572 113.66328,17.8726611 113.66328,19.07359 C113.66328,20.2745188 114.234019,21.0057775 115.149578,21.0057775 Z" id="Allergies" fill="#FFFFFF"></path>
                                    </g>
                                    <g id="status-bar" stroke-width="1" fill-rule="evenodd">
                                        <rect id="status-bar-bg" fill="#2D2B64" x="0" y="0" width="219.163574" height="14.6109049"></rect>
                                        <path d="M189.496257,12.1510445 L188.487753,12.1510445 L188.487753,7.27938391 L187,7.78780358 L187,6.93349185 L189.367069,6.06251061 L189.496257,6.06251061 L189.496257,12.1510445 Z M195.684808,12.1510445 L191.604949,12.1510445 L191.604949,11.455093 L193.626125,9.25055196 C193.917843,8.92549514 194.125515,8.65392397 194.249148,8.43583029 C194.37278,8.21773661 194.434596,7.99895164 194.434596,7.77946883 C194.434596,7.49052943 194.353333,7.25715881 194.190804,7.07934995 C194.028276,6.90154109 193.809491,6.81263799 193.534443,6.81263799 C193.206608,6.81263799 192.952401,6.91265397 192.771813,7.11268894 C192.591226,7.31272391 192.500934,7.58637875 192.500934,7.93366168 L191.488262,7.93366168 C191.488262,7.56415264 191.572303,7.23146059 191.740388,6.93557553 C191.908473,6.63969048 192.148789,6.40979263 192.461344,6.24587508 C192.773899,6.08195754 193.134373,6 193.542778,6 C194.13177,6 194.596427,6.14794031 194.936764,6.44382536 C195.277102,6.73971042 195.447268,7.14880357 195.447268,7.6711171 C195.447268,7.97394781 195.361837,8.29135965 195.190974,8.62336213 C195.020111,8.95536461 194.740205,9.33250821 194.351248,9.75480426 L192.867663,11.3425739 L195.684808,11.3425739 L195.684808,12.1510445 Z M197.130887,11.0841967 C197.319809,11.0841967 197.465666,11.1376774 197.568461,11.2446406 C197.671257,11.3516037 197.722654,11.4856529 197.722654,11.6467922 C197.722654,11.8051532 197.671257,11.9364242 197.568461,12.0406091 C197.465666,12.1447939 197.319809,12.1968856 197.130887,12.1968856 C196.9503,12.1968856 196.807221,12.1454885 196.701647,12.0426928 C196.596073,11.939897 196.543287,11.8079315 196.543287,11.6467922 C196.543287,11.4856529 196.594684,11.3516037 196.69748,11.2446406 C196.800276,11.1376774 196.944743,11.0841967 197.130887,11.0841967 Z M197.130887,7.54609587 C197.319809,7.54609587 197.465666,7.59957664 197.568461,7.70653978 C197.671257,7.81350292 197.722654,7.94755212 197.722654,8.1086914 C197.722654,8.26705242 197.671257,8.3983234 197.568461,8.50250827 C197.465666,8.60669315 197.319809,8.65878481 197.130887,8.65878481 C196.9503,8.65878481 196.807221,8.60738771 196.701647,8.50459196 C196.596073,8.40179621 196.543287,8.26983068 196.543287,8.1086914 C196.543287,7.94755212 196.594684,7.81350292 196.69748,7.70653978 C196.800276,7.59957664 196.944743,7.54609587 197.130887,7.54609587 Z M199.889689,8.65461744 L200.50646,8.65461744 C200.817626,8.65183917 201.064193,8.57127074 201.246169,8.41290973 C201.428145,8.25454871 201.519132,8.02534542 201.519132,7.72529297 C201.519132,7.43635357 201.443426,7.21201216 201.29201,7.05226201 C201.140595,6.89251187 200.909308,6.81263799 200.598142,6.81263799 C200.325873,6.81263799 200.102226,6.89112276 199.927195,7.04809464 C199.752165,7.20506652 199.664651,7.40996038 199.664651,7.66278235 L198.651979,7.66278235 C198.651979,7.35161685 198.734631,7.06823823 198.899937,6.81263799 C199.065244,6.55703776 199.295836,6.35770034 199.591721,6.21461978 C199.887607,6.07153921 200.218909,6 200.58564,6 C201.191302,6 201.667072,6.15210764 202.012966,6.45632749 C202.35886,6.76054733 202.531804,7.1835316 202.531804,7.72529297 C202.531804,7.99756278 202.444985,8.25385374 202.271343,8.49417353 C202.097702,8.73449331 201.87336,8.91577228 201.598312,9.03801587 C201.931704,9.15192467 202.185217,9.33111998 202.358858,9.57560716 C202.532499,9.82009434 202.619319,10.1118076 202.619319,10.4507558 C202.619319,10.9952954 202.432484,11.428698 202.058807,11.7509766 C201.685131,12.0732551 201.19408,12.234392 200.58564,12.234392 C200.002205,12.234392 199.524351,12.0788116 199.152063,11.767646 C198.779776,11.4564805 198.593635,11.0425255 198.593635,10.5257685 L199.606307,10.5257685 C199.606307,10.7924818 199.695905,11.0091831 199.875103,11.1758789 C200.054301,11.3425747 200.295312,11.4259214 200.598142,11.4259214 C200.912086,11.4259214 201.159348,11.3425747 201.339935,11.1758789 C201.520522,11.0091831 201.610814,10.7674778 201.610814,10.4507558 C201.610814,10.1312555 201.516355,9.88538285 201.327433,9.71313051 C201.138511,9.54087818 200.857911,9.45475331 200.485623,9.45475331 L199.889689,9.45475331 L199.889689,8.65461744 Z M207.524318,9.59644403 C207.524318,10.4688187 207.361098,11.1265628 207.034652,11.5696958 C206.708206,12.0128288 206.211599,12.234392 205.544816,12.234392 C204.889146,12.234392 204.395317,12.0183852 204.063314,11.5863653 C203.731312,11.1543453 203.561146,10.5146597 203.552811,9.6672894 L203.552811,8.61711107 C203.552811,7.74473635 203.716031,7.09046513 204.042477,6.65427777 C204.368923,6.21809041 204.866919,6 205.536481,6 C206.200486,6 206.695704,6.21253396 207.02215,6.63760827 C207.348596,7.06268258 207.515984,7.69889536 207.524318,8.54626571 L207.524318,9.59644403 Z M206.511647,8.46291822 C206.511647,7.89337422 206.433856,7.4759464 206.278274,7.21062224 C206.122691,6.94529808 205.875429,6.81263799 205.536481,6.81263799 C205.205868,6.81263799 204.962773,6.93835253 204.80719,7.18978537 C204.651608,7.44121821 204.56965,7.83364203 204.561315,8.36706861 L204.561315,9.74230213 C204.561315,10.3090679 204.640495,10.7313576 204.798856,11.0091839 C204.957217,11.2870103 205.205868,11.4259214 205.544816,11.4259214 C205.869873,11.4259214 206.110189,11.2974286 206.265771,11.0404392 C206.421354,10.7834499 206.503312,10.3813023 206.511647,9.83398437 L206.511647,8.46291822 Z" id="12:30" fill="#FFFFFF"></path>
                                        <g id="battery" transform="translate(176.000000, 4.000000)">
                                            <polygon id="bounds" points="2 0 11.7540372 0 11.7540372 9.75403725 2 9.75403725"></polygon>
                                            <polygon id="Shape" fill="#FFFFFF" points="4.48664595 1.14305124 4.48664595 0.609627328 2.65776397 0.609627328 2.65776397 1.14305124 0.828881984 1.14305124 0.828881984 9.14440992 6.31552794 9.14440992 6.31552794 1.14305124"></polygon>
                                        </g>
                                        <g id="cellular" transform="translate(163.000000, 4.000000)">
                                            <polygon id="bounds" points="0 0 9.75403725 0 9.75403725 9.75403725 0 9.75403725"></polygon>
                                            <polygon id="Shape" fill="#FFFFFF" points="0 9.14440992 8.53478259 9.14440992 8.53478259 0.609627328"></polygon>
                                        </g>
                                        <g id="wifi" transform="translate(150.000000, 4.000000)">
                                            <polygon id="bounds" points="1.21925466 0 10.9732919 0 10.9732919 9.75403725 1.21925466 9.75403725"></polygon>
                                            <path d="M0.595832733,2.44822143 C2.12651368,1.29397291 4.03147474,0.609627328 6.09627328,0.609627328 C8.16107182,0.609627328 10.0660329,1.29397291 11.5967138,2.44822143 L6.09627328,9.14440992 L0.595832733,2.44822143 Z" id="Shape" fill="#FFFFFF"></path>
                                        </g>
                                    </g>
                                </g>
                            </g>
                        </g>
                    </g>
                </g>
            </g>
        </g>
    </g>
</svg>