<?xml version="1.0" encoding="UTF-8"?>
<svg width="239px" height="500px" viewBox="0 0 239 500" version="1.1" xmlns="http://www.w3.org/2000/svg" xmlns:xlink="http://www.w3.org/1999/xlink">
    <!-- Generator: Sketch 52.2 (67145) - http://www.bohemiancoding.com/sketch -->
    <title>phone-halsa-small-left-bottom</title>
    <desc>Created with Sketch.</desc>
    <defs>
        <path d="M22.7905427,0 L215.610529,0 C228.197398,-2.30986361e-15 238.401072,10.1934938 238.401072,22.7678056 L238.401072,476.026882 C238.401072,488.601194 228.197398,498.794688 215.610529,498.794688 L22.7905427,498.794688 C10.2036735,498.794688 1.54144691e-15,488.601194 0,476.026882 L0,22.7678056 C-1.54144691e-15,10.1934938 10.2036735,2.30986361e-15 22.7905427,0 Z" id="path-1"></path>
        <filter x="-3.8%" y="-1.8%" width="107.6%" height="103.6%" filterUnits="objectBoundingBox" id="filter-2">
            <feGaussianBlur stdDeviation="8" in="SourceAlpha" result="shadowBlurInner1"></feGaussianBlur>
            <feOffset dx="0" dy="-2" in="shadowBlurInner1" result="shadowOffsetInner1"></feOffset>
            <feComposite in="shadowOffsetInner1" in2="SourceAlpha" operator="arithmetic" k2="-1" k3="1" result="shadowInnerInner1"></feComposite>
            <feColorMatrix values="0 0 0 0 0.42745098   0 0 0 0 0.42745098   0 0 0 0 0.541176471  0 0 0 0.16 0" type="matrix" in="shadowInnerInner1"></feColorMatrix>
        </filter>
        <path d="M12.7346489,0.598049016 L207.880297,0.598049016 C214.512664,0.598049016 219.88926,5.96681122 219.88926,12.589515 L219.88926,425.695519 C219.88926,432.318223 214.512664,437.686985 207.880297,437.686985 L12.7346489,437.686985 C6.1022818,437.686985 0.725685944,432.318223 0.725685944,425.695519 L0.725685944,12.589515 C0.725685944,5.96681122 6.1022818,0.598049016 12.7346489,0.598049016 Z" id="path-3"></path>
        <path d="M7.74301011,-3.12826876e-16 L190.370955,3.12826876e-16 C193.063368,-1.81761424e-16 194.039703,0.280336127 195.024009,0.806748768 C196.008315,1.33316141 196.780804,2.10565057 197.307217,3.08995663 C197.833629,4.07426269 198.113965,5.05059681 198.113965,7.74301011 L198.113965,22.4572895 C198.113965,25.1497028 197.833629,26.1260369 197.307217,27.110343 C196.780804,28.094649 196.008315,28.8671382 195.024009,29.3935508 C194.039703,29.9199635 193.063368,30.2002996 190.370955,30.2002996 L7.74301011,30.2002996 C5.05059681,30.2002996 4.07426269,29.9199635 3.08995663,29.3935508 C2.10565057,28.8671382 1.33316141,28.094649 0.806748768,27.110343 C0.280336127,26.1260369 -5.20789624e-15,25.1497028 -5.53762177e-15,22.4572895 L-6.79627169e-16,7.74301011 C-1.0093527e-15,5.05059681 0.280336127,4.07426269 0.806748768,3.08995663 C1.33316141,2.10565057 2.10565057,1.33316141 3.08995663,0.806748768 C4.07426269,0.280336127 5.05059681,1.81761424e-16 7.74301011,-3.12826876e-16 Z" id="path-5"></path>
        <filter x="-2.0%" y="-6.6%" width="104.0%" height="126.5%" filterUnits="objectBoundingBox" id="filter-6">
            <feOffset dx="0" dy="2" in="SourceAlpha" result="shadowOffsetOuter1"></feOffset>
            <feGaussianBlur stdDeviation="1" in="shadowOffsetOuter1" result="shadowBlurOuter1"></feGaussianBlur>
            <feColorMatrix values="0 0 0 0 0.188235294   0 0 0 0 0.141176471   0 0 0 0 0.443137255  0 0 0 0.14 0" type="matrix" in="shadowBlurOuter1"></feColorMatrix>
        </filter>
        <path d="M7.74301011,-3.12826876e-16 L190.370955,3.12826876e-16 C193.063368,-1.81761424e-16 194.039703,0.280336127 195.024009,0.806748768 C196.008315,1.33316141 196.780804,2.10565057 197.307217,3.08995663 C197.833629,4.07426269 198.113965,5.05059681 198.113965,7.74301011 L198.113965,22.4572895 C198.113965,25.1497028 197.833629,26.1260369 197.307217,27.110343 C196.780804,28.094649 196.008315,28.8671382 195.024009,29.3935508 C194.039703,29.9199635 193.063368,30.2002996 190.370955,30.2002996 L7.74301011,30.2002996 C5.05059681,30.2002996 4.07426269,29.9199635 3.08995663,29.3935508 C2.10565057,28.8671382 1.33316141,28.094649 0.806748768,27.110343 C0.280336127,26.1260369 -5.20789624e-15,25.1497028 -5.53762177e-15,22.4572895 L-6.79627169e-16,7.74301011 C-1.0093527e-15,5.05059681 0.280336127,4.07426269 0.806748768,3.08995663 C1.33316141,2.10565057 2.10565057,1.33316141 3.08995663,0.806748768 C4.07426269,0.280336127 5.05059681,1.81761424e-16 7.74301011,-3.12826876e-16 Z" id="path-7"></path>
        <filter x="-2.0%" y="-6.6%" width="104.0%" height="126.5%" filterUnits="objectBoundingBox" id="filter-8">
            <feOffset dx="0" dy="2" in="SourceAlpha" result="shadowOffsetOuter1"></feOffset>
            <feGaussianBlur stdDeviation="1" in="shadowOffsetOuter1" result="shadowBlurOuter1"></feGaussianBlur>
            <feColorMatrix values="0 0 0 0 0.188235294   0 0 0 0 0.141176471   0 0 0 0 0.443137255  0 0 0 0.14 0" type="matrix" in="shadowBlurOuter1"></feColorMatrix>
        </filter>
        <path d="M7.74301011,-3.12826876e-16 L190.370955,3.12826876e-16 C193.063368,-1.81761424e-16 194.039703,0.280336127 195.024009,0.806748768 C196.008315,1.33316141 196.780804,2.10565057 197.307217,3.08995663 C197.833629,4.07426269 198.113965,5.05059681 198.113965,7.74301011 L198.113965,22.4572895 C198.113965,25.1497028 197.833629,26.1260369 197.307217,27.110343 C196.780804,28.094649 196.008315,28.8671382 195.024009,29.3935508 C194.039703,29.9199635 193.063368,30.2002996 190.370955,30.2002996 L7.74301011,30.2002996 C5.05059681,30.2002996 4.07426269,29.9199635 3.08995663,29.3935508 C2.10565057,28.8671382 1.33316141,28.094649 0.806748768,27.110343 C0.280336127,26.1260369 -5.20789624e-15,25.1497028 -5.53762177e-15,22.4572895 L-6.79627169e-16,7.74301011 C-1.0093527e-15,5.05059681 0.280336127,4.07426269 0.806748768,3.08995663 C1.33316141,2.10565057 2.10565057,1.33316141 3.08995663,0.806748768 C4.07426269,0.280336127 5.05059681,1.81761424e-16 7.74301011,-3.12826876e-16 Z" id="path-9"></path>
        <filter x="-2.0%" y="-6.6%" width="104.0%" height="126.5%" filterUnits="objectBoundingBox" id="filter-10">
            <feOffset dx="0" dy="2" in="SourceAlpha" result="shadowOffsetOuter1"></feOffset>
            <feGaussianBlur stdDeviation="1" in="shadowOffsetOuter1" result="shadowBlurOuter1"></feGaussianBlur>
            <feColorMatrix values="0 0 0 0 0.188235294   0 0 0 0 0.141176471   0 0 0 0 0.443137255  0 0 0 0.14 0" type="matrix" in="shadowBlurOuter1"></feColorMatrix>
        </filter>
        <path d="M7.74301011,-3.12826876e-16 L190.370955,3.12826876e-16 C193.063368,-1.81761424e-16 194.039703,0.280336127 195.024009,0.806748768 C196.008315,1.33316141 196.780804,2.10565057 197.307217,3.08995663 C197.833629,4.07426269 198.113965,5.05059681 198.113965,7.74301011 L198.113965,22.4572895 C198.113965,25.1497028 197.833629,26.1260369 197.307217,27.110343 C196.780804,28.094649 196.008315,28.8671382 195.024009,29.3935508 C194.039703,29.9199635 193.063368,30.2002996 190.370955,30.2002996 L7.74301011,30.2002996 C5.05059681,30.2002996 4.07426269,29.9199635 3.08995663,29.3935508 C2.10565057,28.8671382 1.33316141,28.094649 0.806748768,27.110343 C0.280336127,26.1260369 -5.20789624e-15,25.1497028 -5.53762177e-15,22.4572895 L-6.79627169e-16,7.74301011 C-1.0093527e-15,5.05059681 0.280336127,4.07426269 0.806748768,3.08995663 C1.33316141,2.10565057 2.10565057,1.33316141 3.08995663,0.806748768 C4.07426269,0.280336127 5.05059681,1.81761424e-16 7.74301011,-3.12826876e-16 Z" id="path-11"></path>
        <filter x="-2.0%" y="-6.6%" width="104.0%" height="126.5%" filterUnits="objectBoundingBox" id="filter-12">
            <feOffset dx="0" dy="2" in="SourceAlpha" result="shadowOffsetOuter1"></feOffset>
            <feGaussianBlur stdDeviation="1" in="shadowOffsetOuter1" result="shadowBlurOuter1"></feGaussianBlur>
            <feColorMatrix values="0 0 0 0 0.188235294   0 0 0 0 0.141176471   0 0 0 0 0.443137255  0 0 0 0.14 0" type="matrix" in="shadowBlurOuter1"></feColorMatrix>
        </filter>
        <path d="M219.163574,14.0021172 L0,14.0021172 L0,52.9645304 C0,52.9645304 49.4612993,66.0792638 109.581787,66.0792638 C169.702275,66.0792638 219.163574,52.9645304 219.163574,52.9645304 L219.163574,14.0021172 Z" id="path-13"></path>
        <filter x="-1.8%" y="-3.8%" width="103.7%" height="115.4%" filterUnits="objectBoundingBox" id="filter-14">
            <feOffset dx="0" dy="2" in="SourceAlpha" result="shadowOffsetOuter1"></feOffset>
            <feGaussianBlur stdDeviation="1" in="shadowOffsetOuter1" result="shadowBlurOuter1"></feGaussianBlur>
            <feColorMatrix values="0 0 0 0 0.176470588   0 0 0 0 0.168627451   0 0 0 0 0.392156863  0 0 0 0.24 0" type="matrix" in="shadowBlurOuter1"></feColorMatrix>
        </filter>
        <filter x="-0.8%" y="-8.0%" width="101.6%" height="116.0%" filterUnits="objectBoundingBox" id="filter-15">
            <feGaussianBlur stdDeviation="0.599361699" in="SourceGraphic"></feGaussianBlur>
        </filter>
    </defs>
    <g id="design-v2" stroke="none" stroke-width="1" fill="none" fill-rule="evenodd">
        <g id="Artboard" transform="translate(-3384.000000, -923.000000)">
            <g id="content" transform="translate(3384.000000, 342.000000)">
                <g id="phones">
                    <g id="phone-halsa-small-left-bottom" transform="translate(0.000000, 581.000000)">
                        <g id="-&gt;-Screenshot-&amp;-Glass" transform="translate(0.522331, 0.219763)">
                            <g id="Main-Black-Body">
                                <use fill="#F5F6FF" fill-rule="evenodd" xlink:href="#path-1"></use>
                                <use fill="black" fill-opacity="1" filter="url(#filter-2)" xlink:href="#path-1"></use>
                            </g>
                            <g id="Screen" transform="translate(8.657681, 32.613920)">
                                <mask id="mask-4" fill="white">
                                    <use xlink:href="#path-3"></use>
                                </mask>
                                <use id="Screenshot-Mask" fill="#F5F6FF" xlink:href="#path-3"></use>
                                <g id="assets/nav-bar" mask="url(#mask-4)">
                                    <g transform="translate(1.238212, 409.848266)">
                                        <rect id="navbar-bg" stroke="none" fill="#F5F6FF" fill-rule="evenodd" x="0" y="0" width="219.163574" height="28.4788825"></rect>
                                        <rect id="recent" stroke="#302471" stroke-width="1.21757541" fill="none" x="166.807831" y="9.97792731" width="8.52302788" height="8.52302788" rx="1.21757541"></rect>
                                        <circle id="home" stroke="#302471" stroke-width="1.21757541" fill="none" cx="109.581787" cy="14.2394413" r="4.26151394"></circle>
                                        <path d="M52.3557425,10.4207773 C52.3557425,10.3137975 52.327552,10.2087065 52.2740104,10.1160892 C52.1057358,9.82500441 51.7333514,9.72544715 51.4422666,9.89372179 L45.3488273,13.4163087 C45.2565093,13.4696773 45.1798285,13.5463581 45.1264599,13.6386761 C44.9581853,13.9297609 45.0577425,14.3021452 45.3488273,14.4704199 L51.4422668,17.9930071 C51.5348841,18.0465487 51.6399751,18.0747392 51.746955,18.0747392 C52.0831792,18.0747392 52.3557427,17.8021757 52.3557427,17.4659515 L52.3557425,10.4207773 Z" id="back" stroke="#302471" stroke-width="1.21757541" fill="none"></path>
                                    </g>
                                </g>
                                <g id="field-name" mask="url(#mask-4)">
                                    <g transform="translate(11.350279, 108.343575)">
                                        <g id="bg" stroke-width="1" fill="none">
                                            <g id="Mask">
                                                <g>
                                                    <use fill="black" fill-opacity="1" filter="url(#filter-6)" xlink:href="#path-5"></use>
                                                    <use fill="#FAFAFE" fill-rule="evenodd" xlink:href="#path-5"></use>
                                                </g>
                                            </g>
                                        </g>
                                        <path d="M11.3817379,18.0600899 L10.5323545,18.0600899 L10.5323545,11.2508661 L14.6660205,11.2508661 L14.6660205,12.0153112 L11.3817379,12.0153112 L11.3817379,14.3558344 L14.3970491,14.3558344 L14.3970491,15.1108419 L11.3817379,15.1108419 L11.3817379,18.0600899 Z M19.711358,12.9732269 L19.711358,18.0600899 L18.9374754,18.0600899 L18.9374754,17.2626132 L18.8619746,17.2626132 C18.6071596,17.8288688 18.064498,18.149747 17.2858965,18.149747 C16.1439477,18.149747 15.5493793,17.4702403 15.5493793,16.2669471 L15.5493793,12.9732269 L16.3610123,12.9732269 L16.3610123,16.0687576 C16.3610123,16.9842042 16.7007657,17.4088959 17.5123987,17.4088959 C18.4089701,17.4088959 18.899725,16.8756719 18.899725,15.9838193 L18.899725,12.9732269 L19.711358,12.9732269 Z M20.9250326,18.0600899 L20.9250326,10.9535819 L21.7366656,10.9535819 L21.7366656,18.0600899 L20.9250326,18.0600899 Z M22.9975282,18.0600899 L22.9975282,10.9535819 L23.8091612,10.9535819 L23.8091612,18.0600899 L22.9975282,18.0600899 Z M28.3316561,18.0600899 L27.4917103,18.0600899 L27.4917103,11.2508661 L28.3174997,11.2508661 L32.0123176,16.5500749 L32.0878184,16.5500749 L32.0878184,11.2508661 L32.9277642,11.2508661 L32.9277642,18.0600899 L32.1019748,18.0600899 L28.4071569,12.7797562 L28.3316561,12.7797562 L28.3316561,18.0600899 Z M35.7647049,17.4372087 C36.5999319,17.4372087 37.2180943,16.8898283 37.2180943,16.1631336 L37.2180943,15.6959727 L35.8496432,15.7856298 C35.0757605,15.8375366 34.7360071,16.106508 34.7360071,16.6161381 C34.7360071,17.1352057 35.1748552,17.4372087 35.7647049,17.4372087 Z M35.6137034,18.149747 C34.6274748,18.149747 33.8960613,17.5646162 33.8960613,16.6350132 C33.8960613,15.7242855 34.5661305,15.200499 35.7505485,15.1297171 L37.2180943,15.0400599 L37.2180943,14.5776178 C37.2180943,13.9500179 36.8264341,13.6055457 36.0667078,13.6055457 C35.4579831,13.6055457 35.0332913,13.8367667 34.9200402,14.2378645 L34.0989696,14.2378645 C34.2075019,13.4215126 35.0096974,12.8835698 36.0950206,12.8835698 C37.3360642,12.8835698 38.0297273,13.5206073 38.0297273,14.5776178 L38.0297273,18.0600899 L37.2558446,18.0600899 L37.2558446,17.3098012 L37.1803439,17.3098012 C36.8500281,17.8524628 36.2932101,18.149747 35.6137034,18.149747 Z M39.1679011,18.0600899 L39.1679011,12.9732269 L39.9417838,12.9732269 L39.9417838,13.7754224 L40.0172845,13.7754224 C40.2485056,13.2091668 40.7581356,12.8835698 41.4376424,12.8835698 C42.1265867,12.8835698 42.607904,13.2469171 42.8438438,13.7754224 L42.9193446,13.7754224 C43.1930348,13.2374795 43.7734468,12.8835698 44.4765475,12.8835698 C45.5146828,12.8835698 46.0950948,13.4781382 46.0950948,14.5445863 L46.0950948,18.0600899 L45.2834618,18.0600899 L45.2834618,14.7333381 C45.2834618,13.9830494 44.929552,13.6149833 44.2122949,13.6149833 C43.5044754,13.6149833 43.0325957,14.1434885 43.0325957,14.7899637 L43.0325957,18.0600899 L42.2209627,18.0600899 L42.2209627,14.6059306 C42.2209627,14.0019246 41.8009897,13.6149833 41.1592334,13.6149833 C40.493883,13.6149833 39.9795342,14.1906765 39.9795342,14.9079336 L39.9795342,18.0600899 L39.1679011,18.0600899 Z M49.2434761,13.6008269 C48.431843,13.6008269 47.8655874,14.1953953 47.8042431,15.0966855 L50.6072084,15.0966855 C50.5883332,14.1953953 50.0503903,13.6008269 49.2434761,13.6008269 Z M50.5836144,16.7435456 L51.3952474,16.7435456 C51.1593076,17.6118042 50.3665497,18.149747 49.2529137,18.149747 C47.8419934,18.149747 46.9595784,17.1304869 46.9595784,15.5213772 C46.9595784,13.9217051 47.8561498,12.8835698 49.2529137,12.8835698 C50.6260835,12.8835698 51.4613106,13.8603607 51.4613106,15.4411576 L51.4613106,15.7525982 L47.8042431,15.7525982 L47.8042431,15.7903486 C47.8467122,16.7954523 48.408249,17.4324899 49.2717889,17.4324899 C49.9277016,17.4324899 50.3712685,17.1918313 50.5836144,16.7435456 Z" id="Gender" fill="#0A0830"></path>
                                    </g>
                                </g>
                                <g id="field-name" mask="url(#mask-4)">
                                    <g transform="translate(11.350279, 148.585474)">
                                        <g id="bg" stroke-width="1" fill="none">
                                            <g id="Mask">
                                                <g>
                                                    <use fill="black" fill-opacity="1" filter="url(#filter-8)" xlink:href="#path-7"></use>
                                                    <use fill="#FAFAFE" fill-rule="evenodd" xlink:href="#path-7"></use>
                                                </g>
                                            </g>
                                            <g id="icon/field/dropdown" transform="translate(181.604468, 9.286592)">
                                                <g id="icon-foward">
                                                    <rect id="bound" fill="#D8D8D8" opacity="0" x="0" y="0" width="8.25474855" height="8.25474855"></rect>
                                                    <g id="icons/fields/arrow_foward" transform="translate(2.063687, 2.063687)" fill="#B1B0C9">
                                                        <path d="M3.38960592,0.325030705 L3.38960592,0.325030705 C3.21009642,0.504540206 3.21009642,0.795582613 3.38960592,0.975092115 L5.66482086,3.25030705 L0.464329578,3.25030705 C0.207887433,3.25030705 1.96361274e-16,3.45819448 0,3.71463663 L0,3.71463663 C-1.96361274e-16,3.97107877 0.207887433,4.17896621 0.464329578,4.17896621 L5.66482086,4.17896621 L3.38960592,6.45418114 C3.21009642,6.63369064 3.21009642,6.92473305 3.38960592,7.10424255 L3.38960592,7.10424255 C3.56911542,7.28375205 3.86015783,7.28375205 4.03966733,7.10424255 L6.99149913,4.15241075 C7.2332751,3.91063478 7.2332751,3.51863848 6.99149913,3.2768625 L4.03966733,0.325030705 C3.86015783,0.145521203 3.56911542,0.145521203 3.38960592,0.325030705 Z" id="Shape"></path>
                                                    </g>
                                                </g>
                                            </g>
                                        </g>
                                        <path d="M11.3723003,18.0600899 L10.5323545,18.0600899 L10.5323545,11.2508661 L11.3581439,11.2508661 L15.0529618,16.5500749 L15.1284626,16.5500749 L15.1284626,11.2508661 L15.9684084,11.2508661 L15.9684084,18.0600899 L15.142619,18.0600899 L11.4478011,12.7797562 L11.3723003,12.7797562 L11.3723003,18.0600899 Z M18.8053491,17.4372087 C19.6405761,17.4372087 20.2587385,16.8898283 20.2587385,16.1631336 L20.2587385,15.6959727 L18.8902874,15.7856298 C18.1164047,15.8375366 17.7766514,16.106508 17.7766514,16.6161381 C17.7766514,17.1352057 18.2154995,17.4372087 18.8053491,17.4372087 Z M18.6543476,18.149747 C17.668119,18.149747 16.9367055,17.5646162 16.9367055,16.6350132 C16.9367055,15.7242855 17.6067747,15.200499 18.7911927,15.1297171 L20.2587385,15.0400599 L20.2587385,14.5776178 C20.2587385,13.9500179 19.8670783,13.6055457 19.1073521,13.6055457 C18.4986273,13.6055457 18.0739356,13.8367667 17.9606844,14.2378645 L17.1396138,14.2378645 C17.2481461,13.4215126 18.0503416,12.8835698 19.1356648,12.8835698 C20.3767084,12.8835698 21.0703715,13.5206073 21.0703715,14.5776178 L21.0703715,18.0600899 L20.2964889,18.0600899 L20.2964889,17.3098012 L20.2209881,17.3098012 C19.8906723,17.8524628 19.3338543,18.149747 18.6543476,18.149747 Z M22.5482987,11.6566826 L23.3599318,11.6566826 L23.3599318,12.9732269 L24.492443,12.9732269 L24.492443,13.6527337 L23.3599318,13.6527337 L23.3599318,16.5311997 C23.3599318,17.1304869 23.586434,17.3853019 24.1149392,17.3853019 C24.2612219,17.3853019 24.3414415,17.3805831 24.492443,17.3664267 L24.492443,18.0506523 C24.3320039,18.0789651 24.1762836,18.0978402 24.0158445,18.0978402 C22.9682716,18.0978402 22.5482987,17.7108989 22.5482987,16.7388268 L22.5482987,13.6527337 L21.7272281,13.6527337 L21.7272281,12.9732269 L22.5482987,12.9732269 L22.5482987,11.6566826 Z M25.3758018,18.0600899 L25.3758018,12.9732269 L26.1874348,12.9732269 L26.1874348,18.0600899 L25.3758018,18.0600899 Z M25.7816183,11.9917172 C25.4701777,11.9917172 25.2153627,11.7369021 25.2153627,11.4254616 C25.2153627,11.114021 25.4701777,10.8592059 25.7816183,10.8592059 C26.0930589,10.8592059 26.3478739,11.114021 26.3478739,11.4254616 C26.3478739,11.7369021 26.0930589,11.9917172 25.7816183,11.9917172 Z M29.4632236,18.149747 C28.0145529,18.149747 27.1179816,17.1493621 27.1179816,15.5166584 C27.1179816,13.8792359 28.0145529,12.8835698 29.4632236,12.8835698 C30.9118942,12.8835698 31.8084656,13.8792359 31.8084656,15.5166584 C31.8084656,17.1493621 30.9118942,18.149747 29.4632236,18.149747 Z M29.4632236,17.4183335 C30.4258581,17.4183335 30.9685198,16.7199516 30.9685198,15.5166584 C30.9685198,14.3086464 30.4258581,13.6149833 29.4632236,13.6149833 C28.500589,13.6149833 27.9579274,14.3086464 27.9579274,15.5166584 C27.9579274,16.7199516 28.500589,17.4183335 29.4632236,17.4183335 Z M32.7201371,18.0600899 L32.7201371,12.9732269 L33.4940198,12.9732269 L33.4940198,13.7754224 L33.5695206,13.7754224 C33.8243356,13.2138856 34.3198093,12.8835698 35.0984107,12.8835698 C36.2403596,12.8835698 36.8773971,13.5583577 36.8773971,14.7663697 L36.8773971,18.0600899 L36.0657641,18.0600899 L36.0657641,14.9645592 C36.0657641,14.0491126 35.6788227,13.6149833 34.8671897,13.6149833 C34.0555566,13.6149833 33.5317702,14.1576449 33.5317702,15.0494975 L33.5317702,18.0600899 L32.7201371,18.0600899 Z M39.5633363,17.4372087 C40.3985633,17.4372087 41.0167257,16.8898283 41.0167257,16.1631336 L41.0167257,15.6959727 L39.6482746,15.7856298 C38.8743919,15.8375366 38.5346386,16.106508 38.5346386,16.6161381 C38.5346386,17.1352057 38.9734867,17.4372087 39.5633363,17.4372087 Z M39.4123348,18.149747 C38.4261063,18.149747 37.6946927,17.5646162 37.6946927,16.6350132 C37.6946927,15.7242855 38.3647619,15.200499 39.5491799,15.1297171 L41.0167257,15.0400599 L41.0167257,14.5776178 C41.0167257,13.9500179 40.6250656,13.6055457 39.8653393,13.6055457 C39.2566145,13.6055457 38.8319228,13.8367667 38.7186717,14.2378645 L37.897601,14.2378645 C38.0061333,13.4215126 38.8083288,12.8835698 39.8936521,12.8835698 C41.1346956,12.8835698 41.8283588,13.5206073 41.8283588,14.5776178 L41.8283588,18.0600899 L41.0544761,18.0600899 L41.0544761,17.3098012 L40.9789753,17.3098012 C40.6486595,17.8524628 40.0918415,18.149747 39.4123348,18.149747 Z M43.0137205,18.0600899 L43.0137205,10.9535819 L43.8253536,10.9535819 L43.8253536,18.0600899 L43.0137205,18.0600899 Z M45.0579033,18.0600899 L45.0579033,12.9732269 L45.8695364,12.9732269 L45.8695364,18.0600899 L45.0579033,18.0600899 Z M45.4637198,11.9917172 C45.1522792,11.9917172 44.8974642,11.7369021 44.8974642,11.4254616 C44.8974642,11.114021 45.1522792,10.8592059 45.4637198,10.8592059 C45.7751604,10.8592059 46.0299755,11.114021 46.0299755,11.4254616 C46.0299755,11.7369021 45.7751604,11.9917172 45.4637198,11.9917172 Z M47.3946515,11.6566826 L48.2062846,11.6566826 L48.2062846,12.9732269 L49.3387958,12.9732269 L49.3387958,13.6527337 L48.2062846,13.6527337 L48.2062846,16.5311997 C48.2062846,17.1304869 48.4327868,17.3853019 48.961292,17.3853019 C49.1075747,17.3853019 49.1877943,17.3805831 49.3387958,17.3664267 L49.3387958,18.0506523 C49.1783567,18.0789651 49.0226364,18.0978402 48.8621973,18.0978402 C47.8146244,18.0978402 47.3946515,17.7108989 47.3946515,16.7388268 L47.3946515,13.6527337 L46.5735809,13.6527337 L46.5735809,12.9732269 L47.3946515,12.9732269 L47.3946515,11.6566826 Z M50.6374087,19.9004206 C50.5288764,19.9004206 50.3873125,19.890983 50.2740613,19.8721079 L50.2740613,19.1784447 C50.3731561,19.1973199 50.5005636,19.2020387 50.6138147,19.2020387 C51.0809756,19.2020387 51.3357906,18.9802553 51.5481365,18.3668117 L51.6425124,18.0648087 L49.7597125,12.9732269 L50.6374087,12.9732269 L52.0341725,17.1587997 L52.1096733,17.1587997 L53.5017183,12.9732269 L54.3652582,12.9732269 L52.3786447,18.3715305 C51.9445154,19.5512297 51.5386989,19.9004206 50.6374087,19.9004206 Z" id="Gender" fill="#0A0830"></path>
                                    </g>
                                </g>
                                <g id="field-name" mask="url(#mask-4)">
                                    <g transform="translate(11.350279, 221.846367)">
                                        <g id="bg" stroke-width="1" fill="none">
                                            <g id="Mask">
                                                <g>
                                                    <use fill="black" fill-opacity="1" filter="url(#filter-10)" xlink:href="#path-9"></use>
                                                    <use fill="#FAFAFE" fill-rule="evenodd" xlink:href="#path-9"></use>
                                                </g>
                                            </g>
                                        </g>
                                        <path d="M10.2067575,16.2811035 L11.0655785,16.2811035 C11.169392,16.9936418 11.8488988,17.4466463 12.8162521,17.4466463 C13.7316987,17.4466463 14.4064867,16.9511726 14.4064867,16.2763847 C14.4064867,15.6959727 13.9817949,15.3279065 13.0427544,15.0919667 L12.169777,14.8654644 C10.938171,14.5540238 10.404947,13.9972058 10.404947,13.0298525 C10.404947,11.8737473 11.3723003,11.090427 12.8115333,11.090427 C14.1280776,11.090427 15.1095874,11.8737473 15.1803693,12.9732269 L14.3262671,12.9732269 C14.2082972,12.274845 13.632604,11.8595909 12.7832206,11.8595909 C11.8772116,11.8595909 11.2779244,12.3125954 11.2779244,13.0015397 C11.2779244,13.5347637 11.6507093,13.8414855 12.5897499,14.0821442 L13.3022882,14.270896 C14.7132085,14.6248058 15.2794641,15.1721862 15.2794641,16.1725712 C15.2794641,17.4230523 14.2932355,18.220529 12.7360326,18.220529 C11.2920808,18.220529 10.2964146,17.4560839 10.2067575,16.2811035 Z M18.3145942,18.149747 C16.8659236,18.149747 15.9693522,17.1493621 15.9693522,15.5166584 C15.9693522,13.8792359 16.8659236,12.8835698 18.3145942,12.8835698 C19.7632648,12.8835698 20.6598362,13.8792359 20.6598362,15.5166584 C20.6598362,17.1493621 19.7632648,18.149747 18.3145942,18.149747 Z M18.3145942,17.4183335 C19.2772287,17.4183335 19.8198904,16.7199516 19.8198904,15.5166584 C19.8198904,14.3086464 19.2772287,13.6149833 18.3145942,13.6149833 C17.3519596,13.6149833 16.809298,14.3086464 16.809298,15.5166584 C16.809298,16.7199516 17.3519596,17.4183335 18.3145942,17.4183335 Z M25.7806745,14.5304299 L24.9596039,14.5304299 C24.8274776,14.0255186 24.3791919,13.6149833 23.6477784,13.6149833 C22.7323318,13.6149833 22.1566386,14.3463968 22.1566386,15.4977832 C22.1566386,16.6727636 22.7417694,17.4183335 23.6477784,17.4183335 C24.3320039,17.4183335 24.8086024,17.1021741 24.9596039,16.5264809 L25.7806745,16.5264809 C25.6343918,17.4608027 24.8746655,18.149747 23.6524972,18.149747 C22.2274205,18.149747 21.3166927,17.1163305 21.3166927,15.4977832 C21.3166927,13.9122675 22.2227017,12.8835698 23.6477784,12.8835698 C24.8841031,12.8835698 25.6391106,13.6244209 25.7806745,14.5304299 Z M26.6357205,18.0600899 L26.6357205,12.9732269 L27.4473536,12.9732269 L27.4473536,18.0600899 L26.6357205,18.0600899 Z M27.041537,11.9917172 C26.7300964,11.9917172 26.4752814,11.7369021 26.4752814,11.4254616 C26.4752814,11.114021 26.7300964,10.8592059 27.041537,10.8592059 C27.3529776,10.8592059 27.6077927,11.114021 27.6077927,11.4254616 C27.6077927,11.7369021 27.3529776,11.9917172 27.041537,11.9917172 Z M30.1993559,17.4372087 C31.0345829,17.4372087 31.6527453,16.8898283 31.6527453,16.1631336 L31.6527453,15.6959727 L30.2842942,15.7856298 C29.5104115,15.8375366 29.1706582,16.106508 29.1706582,16.6161381 C29.1706582,17.1352057 29.6095063,17.4372087 30.1993559,17.4372087 Z M30.0483544,18.149747 C29.0621258,18.149747 28.3307123,17.5646162 28.3307123,16.6350132 C28.3307123,15.7242855 29.0007815,15.200499 30.1851995,15.1297171 L31.6527453,15.0400599 L31.6527453,14.5776178 C31.6527453,13.9500179 31.2610852,13.6055457 30.5013589,13.6055457 C29.8926341,13.6055457 29.4679424,13.8367667 29.3546912,14.2378645 L28.5336206,14.2378645 C28.6421529,13.4215126 29.4443484,12.8835698 30.5296716,12.8835698 C31.7707152,12.8835698 32.4643783,13.5206073 32.4643783,14.5776178 L32.4643783,18.0600899 L31.6904957,18.0600899 L31.6904957,17.3098012 L31.6149949,17.3098012 C31.2846791,17.8524628 30.7278611,18.149747 30.0483544,18.149747 Z M33.6497401,18.0600899 L33.6497401,10.9535819 L34.4613732,10.9535819 L34.4613732,18.0600899 L33.6497401,18.0600899 Z M37.8183252,16.2811035 L38.6771463,16.2811035 C38.7809598,16.9936418 39.4604665,17.4466463 40.4278199,17.4466463 C41.3432665,17.4466463 42.0180544,16.9511726 42.0180544,16.2763847 C42.0180544,15.6959727 41.5933627,15.3279065 40.6543221,15.0919667 L39.7813447,14.8654644 C38.5497387,14.5540238 38.0165147,13.9972058 38.0165147,13.0298525 C38.0165147,11.8737473 38.983868,11.090427 40.4231011,11.090427 C41.7396454,11.090427 42.7211551,11.8737473 42.7919371,12.9732269 L41.9378348,12.9732269 C41.8198649,12.274845 41.2441717,11.8595909 40.3947883,11.8595909 C39.4887793,11.8595909 38.8894921,12.3125954 38.8894921,13.0015397 C38.8894921,13.5347637 39.2622771,13.8414855 40.2013176,14.0821442 L40.9138559,14.270896 C42.3247762,14.6248058 42.8910318,15.1721862 42.8910318,16.1725712 C42.8910318,17.4230523 41.9048033,18.220529 40.3476003,18.220529 C38.9036485,18.220529 37.9079824,17.4560839 37.8183252,16.2811035 Z M45.8648176,13.6008269 C45.0531845,13.6008269 44.4869289,14.1953953 44.4255845,15.0966855 L47.2285498,15.0966855 C47.2096747,14.1953953 46.6717318,13.6008269 45.8648176,13.6008269 Z M47.2049559,16.7435456 L48.0165889,16.7435456 C47.7806491,17.6118042 46.9878912,18.149747 45.8742552,18.149747 C44.4633349,18.149747 43.5809199,17.1304869 43.5809199,15.5213772 C43.5809199,13.9217051 44.4774913,12.8835698 45.8742552,12.8835698 C47.247425,12.8835698 48.0826521,13.8603607 48.0826521,15.4411576 L48.0826521,15.7525982 L44.4255845,15.7525982 L44.4255845,15.7903486 C44.4680537,16.7954523 45.0295905,17.4324899 45.8931303,17.4324899 C46.5490431,17.4324899 46.99261,17.1918313 47.2049559,16.7435456 Z M53.2034904,14.5304299 L52.3824197,14.5304299 C52.2502934,14.0255186 51.8020077,13.6149833 51.0705942,13.6149833 C50.1551476,13.6149833 49.5794544,14.3463968 49.5794544,15.4977832 C49.5794544,16.6727636 50.1645852,17.4183335 51.0705942,17.4183335 C51.7548198,17.4183335 52.2314182,17.1021741 52.3824197,16.5264809 L53.2034904,16.5264809 C53.0572077,17.4608027 52.2974814,18.149747 51.075313,18.149747 C49.6502364,18.149747 48.7395086,17.1163305 48.7395086,15.4977832 C48.7395086,13.9122675 49.6455176,12.8835698 51.0705942,12.8835698 C52.306919,12.8835698 53.0619265,13.6244209 53.2034904,14.5304299 Z M58.154452,12.9732269 L58.154452,18.0600899 L57.3805693,18.0600899 L57.3805693,17.2626132 L57.3050686,17.2626132 C57.0502535,17.8288688 56.5075919,18.149747 55.7289904,18.149747 C54.5870416,18.149747 53.9924732,17.4702403 53.9924732,16.2669471 L53.9924732,12.9732269 L54.8041063,12.9732269 L54.8041063,16.0687576 C54.8041063,16.9842042 55.1438596,17.4088959 55.9554927,17.4088959 C56.8520641,17.4088959 57.3428189,16.8756719 57.3428189,15.9838193 L57.3428189,12.9732269 L58.154452,12.9732269 Z M59.3209386,18.0600899 L59.3209386,12.9732269 L60.0948213,12.9732269 L60.0948213,13.7282344 L60.170322,13.7282344 C60.3213235,13.2327607 60.9064543,12.8835698 61.5812423,12.8835698 C61.7133686,12.8835698 61.8832453,12.8930074 61.9870588,12.9071638 L61.9870588,13.7187968 C61.9209956,13.6999216 61.6284302,13.6716088 61.4679911,13.6716088 C60.6941085,13.6716088 60.1325716,14.1906765 60.1325716,14.9079336 L60.1325716,18.0600899 L59.3209386,18.0600899 Z M62.6580717,18.0600899 L62.6580717,12.9732269 L63.4697048,12.9732269 L63.4697048,18.0600899 L62.6580717,18.0600899 Z M63.0638882,11.9917172 C62.7524476,11.9917172 62.4976326,11.7369021 62.4976326,11.4254616 C62.4976326,11.114021 62.7524476,10.8592059 63.0638882,10.8592059 C63.3753288,10.8592059 63.6301438,11.114021 63.6301438,11.4254616 C63.6301438,11.7369021 63.3753288,11.9917172 63.0638882,11.9917172 Z M64.9948199,11.6566826 L65.8064529,11.6566826 L65.8064529,12.9732269 L66.9389642,12.9732269 L66.9389642,13.6527337 L65.8064529,13.6527337 L65.8064529,16.5311997 C65.8064529,17.1304869 66.0329552,17.3853019 66.5614604,17.3853019 C66.7077431,17.3853019 66.7879627,17.3805831 66.9389642,17.3664267 L66.9389642,18.0506523 C66.7785251,18.0789651 66.6228048,18.0978402 66.4623657,18.0978402 C65.4147928,18.0978402 64.9948199,17.7108989 64.9948199,16.7388268 L64.9948199,13.6527337 L64.1737492,13.6527337 L64.1737492,12.9732269 L64.9948199,12.9732269 L64.9948199,11.6566826 Z M68.2375771,19.9004206 C68.1290447,19.9004206 67.9874808,19.890983 67.8742297,19.8721079 L67.8742297,19.1784447 C67.9733244,19.1973199 68.100732,19.2020387 68.2139831,19.2020387 C68.681144,19.2020387 68.935959,18.9802553 69.1483049,18.3668117 L69.2426808,18.0648087 L67.3598809,12.9732269 L68.2375771,12.9732269 L69.6343409,17.1587997 L69.7098417,17.1587997 L71.1018867,12.9732269 L71.9654266,12.9732269 L69.9788131,18.3715305 C69.5446838,19.5512297 69.1388673,19.9004206 68.2375771,19.9004206 Z M75.9971666,18.0600899 L75.1572207,18.0600899 L75.1572207,11.2508661 L75.9830102,11.2508661 L79.6778281,16.5500749 L79.7533288,16.5500749 L79.7533288,11.2508661 L80.5932747,11.2508661 L80.5932747,18.0600899 L79.7674852,18.0600899 L76.0726673,12.7797562 L75.9971666,12.7797562 L75.9971666,18.0600899 Z M85.9783656,12.9732269 L85.9783656,18.0600899 L85.2044829,18.0600899 L85.2044829,17.2626132 L85.1289822,17.2626132 C84.8741671,17.8288688 84.3315055,18.149747 83.552904,18.149747 C82.4109552,18.149747 81.8163868,17.4702403 81.8163868,16.2669471 L81.8163868,12.9732269 L82.6280199,12.9732269 L82.6280199,16.0687576 C82.6280199,16.9842042 82.9677732,17.4088959 83.7794063,17.4088959 C84.6759777,17.4088959 85.1667325,16.8756719 85.1667325,15.9838193 L85.1667325,12.9732269 L85.9783656,12.9732269 Z M87.1448522,18.0600899 L87.1448522,12.9732269 L87.9187349,12.9732269 L87.9187349,13.7754224 L87.9942356,13.7754224 C88.2254566,13.2091668 88.7350867,12.8835698 89.4145934,12.8835698 C90.1035378,12.8835698 90.584855,13.2469171 90.8207949,13.7754224 L90.8962956,13.7754224 C91.1699859,13.2374795 91.7503979,12.8835698 92.4534986,12.8835698 C93.4916339,12.8835698 94.0720459,13.4781382 94.0720459,14.5445863 L94.0720459,18.0600899 L93.2604128,18.0600899 L93.2604128,14.7333381 C93.2604128,13.9830494 92.9065031,13.6149833 92.189246,13.6149833 C91.4814264,13.6149833 91.0095468,14.1434885 91.0095468,14.7899637 L91.0095468,18.0600899 L90.1979137,18.0600899 L90.1979137,14.6059306 C90.1979137,14.0019246 89.7779408,13.6149833 89.1361844,13.6149833 C88.4708341,13.6149833 87.9564852,14.1906765 87.9564852,14.9079336 L87.9564852,18.0600899 L87.1448522,18.0600899 Z M97.7206196,18.149747 C97.0128001,18.149747 96.4087941,17.8147124 96.0879159,17.2484568 L96.0124152,17.2484568 L96.0124152,18.0600899 L95.2385325,18.0600899 L95.2385325,10.9535819 L96.0501655,10.9535819 L96.0501655,13.7754224 L96.1256663,13.7754224 C96.4040753,13.2280419 97.0222377,12.8835698 97.7206196,12.8835698 C99.0135699,12.8835698 99.8535158,13.9169863 99.8535158,15.5166584 C99.8535158,17.1068929 99.0088511,18.149747 97.7206196,18.149747 Z M97.5318677,13.6149833 C96.6069835,13.6149833 96.0312903,14.341678 96.0312903,15.5166584 C96.0312903,16.6916388 96.6069835,17.4183335 97.5318677,17.4183335 C98.4614707,17.4183335 99.0135699,16.7057952 99.0135699,15.5166584 C99.0135699,14.3275216 98.4614707,13.6149833 97.5318677,13.6149833 Z M102.79427,13.6008269 C101.982637,13.6008269 101.416381,14.1953953 101.355037,15.0966855 L104.158002,15.0966855 C104.139127,14.1953953 103.601184,13.6008269 102.79427,13.6008269 Z M104.134408,16.7435456 L104.946041,16.7435456 C104.710101,17.6118042 103.917344,18.149747 102.803708,18.149747 C101.392787,18.149747 100.510372,17.1304869 100.510372,15.5213772 C100.510372,13.9217051 101.406944,12.8835698 102.803708,12.8835698 C104.176877,12.8835698 105.012104,13.8603607 105.012104,15.4411576 L105.012104,15.7525982 L101.355037,15.7525982 L101.355037,15.7903486 C101.397506,16.7954523 101.959043,17.4324899 102.822583,17.4324899 C103.478495,17.4324899 103.922062,17.1918313 104.134408,16.7435456 Z M105.923776,18.0600899 L105.923776,12.9732269 L106.697659,12.9732269 L106.697659,13.7282344 L106.773159,13.7282344 C106.924161,13.2327607 107.509292,12.8835698 108.18408,12.8835698 C108.316206,12.8835698 108.486083,12.8930074 108.589896,12.9071638 L108.589896,13.7187968 C108.523833,13.6999216 108.231268,13.6716088 108.070829,13.6716088 C107.296946,13.6716088 106.735409,14.1906765 106.735409,14.9079336 L106.735409,18.0600899 L105.923776,18.0600899 Z" id="Gender" fill="#0A0830"></path>
                                    </g>
                                </g>
                                <g id="field-name" mask="url(#mask-4)">
                                    <g transform="translate(11.350279, 262.088267)">
                                        <g id="bg" stroke-width="1" fill="none">
                                            <g id="Mask">
                                                <g>
                                                    <use fill="black" fill-opacity="1" filter="url(#filter-12)" xlink:href="#path-11"></use>
                                                    <use fill="#FAFAFE" fill-rule="evenodd" xlink:href="#path-11"></use>
                                                </g>
                                            </g>
                                        </g>
                                        <path d="M10.5323545,11.2508661 L12.8681589,11.2508661 C14.8878039,11.2508661 16.0816595,12.5107848 16.0816595,14.6531186 C16.0816595,16.8001711 14.8925227,18.0600899 12.8681589,18.0600899 L10.5323545,18.0600899 L10.5323545,11.2508661 Z M11.3817379,12.0153112 L11.3817379,17.2956448 L12.8115333,17.2956448 C14.3309859,17.2956448 15.2134009,16.3235726 15.2134009,14.6625562 C15.2134009,12.9968209 14.3215483,12.0153112 12.8115333,12.0153112 L11.3817379,12.0153112 Z M18.6543476,17.4372087 C19.4895746,17.4372087 20.107737,16.8898283 20.107737,16.1631336 L20.107737,15.6959727 L18.7392859,15.7856298 C17.9654032,15.8375366 17.6256499,16.106508 17.6256499,16.6161381 C17.6256499,17.1352057 18.064498,17.4372087 18.6543476,17.4372087 Z M18.5033461,18.149747 C17.5171175,18.149747 16.785704,17.5646162 16.785704,16.6350132 C16.785704,15.7242855 17.4557732,15.200499 18.6401912,15.1297171 L20.107737,15.0400599 L20.107737,14.5776178 C20.107737,13.9500179 19.7160768,13.6055457 18.9563506,13.6055457 C18.3476258,13.6055457 17.9229341,13.8367667 17.8096829,14.2378645 L16.9886123,14.2378645 C17.0971446,13.4215126 17.8993401,12.8835698 18.9846633,12.8835698 C20.2257069,12.8835698 20.91937,13.5206073 20.91937,14.5776178 L20.91937,18.0600899 L20.1454874,18.0600899 L20.1454874,17.3098012 L20.0699866,17.3098012 C19.7396708,17.8524628 19.1828528,18.149747 18.5033461,18.149747 Z M22.3972972,11.6566826 L23.2089303,11.6566826 L23.2089303,12.9732269 L24.3414415,12.9732269 L24.3414415,13.6527337 L23.2089303,13.6527337 L23.2089303,16.5311997 C23.2089303,17.1304869 23.4354325,17.3853019 23.9639377,17.3853019 C24.1102204,17.3853019 24.19044,17.3805831 24.3414415,17.3664267 L24.3414415,18.0506523 C24.1810024,18.0789651 24.0252821,18.0978402 23.864843,18.0978402 C22.8172701,18.0978402 22.3972972,17.7108989 22.3972972,16.7388268 L22.3972972,13.6527337 L21.5762266,13.6527337 L21.5762266,12.9732269 L22.3972972,12.9732269 L22.3972972,11.6566826 Z M27.1642258,13.6008269 C26.3525927,13.6008269 25.7863371,14.1953953 25.7249927,15.0966855 L28.527958,15.0966855 C28.5090828,14.1953953 27.97114,13.6008269 27.1642258,13.6008269 Z M28.504364,16.7435456 L29.3159971,16.7435456 C29.0800573,17.6118042 28.2872994,18.149747 27.1736633,18.149747 C25.7627431,18.149747 24.8803281,17.1304869 24.8803281,15.5213772 C24.8803281,13.9217051 25.7768995,12.8835698 27.1736633,12.8835698 C28.5468332,12.8835698 29.3820603,13.8603607 29.3820603,15.4411576 L29.3820603,15.7525982 L25.7249927,15.7525982 L25.7249927,15.7903486 C25.7674619,16.7954523 26.3289987,17.4324899 27.1925385,17.4324899 C27.8484513,17.4324899 28.2920182,17.1918313 28.504364,16.7435456 Z M34.7492198,18.149747 C33.3005491,18.149747 32.4039778,17.1493621 32.4039778,15.5166584 C32.4039778,13.8792359 33.3005491,12.8835698 34.7492198,12.8835698 C36.1978904,12.8835698 37.0944618,13.8792359 37.0944618,15.5166584 C37.0944618,17.1493621 36.1978904,18.149747 34.7492198,18.149747 Z M34.7492198,17.4183335 C35.7118543,17.4183335 36.2545159,16.7199516 36.2545159,15.5166584 C36.2545159,14.3086464 35.7118543,13.6149833 34.7492198,13.6149833 C33.7865852,13.6149833 33.2439236,14.3086464 33.2439236,15.5166584 C33.2439236,16.7199516 33.7865852,17.4183335 34.7492198,17.4183335 Z M38.3458867,18.0600899 L38.3458867,13.6527337 L37.5012221,13.6527337 L37.5012221,12.9732269 L38.3458867,12.9732269 L38.3458867,12.4069713 C38.3458867,11.39243 38.8555168,10.9063939 39.8228701,10.9063939 C40.0210596,10.9063939 40.2003739,10.9205503 40.3702505,10.9535819 L40.3702505,11.6142134 C40.2711558,11.5953382 40.1343107,11.5906194 39.988028,11.5906194 C39.4028972,11.5906194 39.1575198,11.8737473 39.1575198,12.4305653 L39.1575198,12.9732269 L40.3230626,12.9732269 L40.3230626,13.6527337 L39.1575198,13.6527337 L39.1575198,18.0600899 L38.3458867,18.0600899 Z M44.4586161,18.0600899 L43.6092327,18.0600899 L43.6092327,11.2508661 L44.4586161,11.2508661 L44.4586161,18.0600899 Z M45.6109463,14.365272 C45.6109463,13.5206073 46.4272982,12.8835698 47.5079026,12.8835698 C48.5743507,12.8835698 49.3152018,13.412075 49.4237341,14.2473021 L48.6215387,14.2473021 C48.5130063,13.8414855 48.1166274,13.5725141 47.5031838,13.5725141 C46.8991778,13.5725141 46.4272982,13.8792359 46.4272982,14.3322404 C46.4272982,14.6814314 46.710426,14.898496 47.3097132,15.0447787 L48.0930334,15.2335306 C49.0509492,15.4647516 49.5133913,15.8800057 49.5133913,16.6114193 C49.5133913,17.522147 48.6309763,18.149747 47.474871,18.149747 C46.3423598,18.149747 45.5637583,17.6070854 45.4741012,16.7624208 L46.3093282,16.7624208 C46.4461733,17.1918313 46.8519899,17.4655215 47.5031838,17.4655215 C48.1874094,17.4655215 48.6781642,17.1399245 48.6781642,16.6727636 C48.6781642,16.3235726 48.4139116,16.0876328 47.87125,15.9555065 L46.9982726,15.7431606 C46.0450756,15.5119396 45.6109463,15.1014043 45.6109463,14.365272 Z M50.212717,14.365272 C50.212717,13.5206073 51.0290688,12.8835698 52.1096733,12.8835698 C53.1761214,12.8835698 53.9169725,13.412075 54.0255048,14.2473021 L53.2233093,14.2473021 C53.114777,13.8414855 52.7183981,13.5725141 52.1049545,13.5725141 C51.5009485,13.5725141 51.0290688,13.8792359 51.0290688,14.3322404 C51.0290688,14.6814314 51.3121966,14.898496 51.9114838,15.0447787 L52.6948041,15.2335306 C53.6527198,15.4647516 54.1151619,15.8800057 54.1151619,16.6114193 C54.1151619,17.522147 53.2327469,18.149747 52.0766417,18.149747 C50.9441305,18.149747 50.165529,17.6070854 50.0758719,16.7624208 L50.9110989,16.7624208 C51.047944,17.1918313 51.4537605,17.4655215 52.1049545,17.4655215 C52.78918,17.4655215 53.2799349,17.1399245 53.2799349,16.6727636 C53.2799349,16.3235726 53.0156823,16.0876328 52.4730206,15.9555065 L51.6000432,15.7431606 C50.6468463,15.5119396 50.212717,15.1014043 50.212717,14.365272 Z M59.1416243,12.9732269 L59.1416243,18.0600899 L58.3677416,18.0600899 L58.3677416,17.2626132 L58.2922409,17.2626132 C58.0374259,17.8288688 57.4947642,18.149747 56.7161627,18.149747 C55.5742139,18.149747 54.9796455,17.4702403 54.9796455,16.2669471 L54.9796455,12.9732269 L55.7912786,12.9732269 L55.7912786,16.0687576 C55.7912786,16.9842042 56.1310319,17.4088959 56.942665,17.4088959 C57.8392364,17.4088959 58.3299913,16.8756719 58.3299913,15.9838193 L58.3299913,12.9732269 L59.1416243,12.9732269 Z M62.3371935,13.6008269 C61.5255605,13.6008269 60.9593048,14.1953953 60.8979605,15.0966855 L63.7009258,15.0966855 C63.6820506,14.1953953 63.1441078,13.6008269 62.3371935,13.6008269 Z M63.6773318,16.7435456 L64.4889649,16.7435456 C64.253025,17.6118042 63.4602672,18.149747 62.3466311,18.149747 C60.9357109,18.149747 60.0532959,17.1304869 60.0532959,15.5213772 C60.0532959,13.9217051 60.9498673,12.8835698 62.3466311,12.8835698 C63.719801,12.8835698 64.555028,13.8603607 64.555028,15.4411576 L64.555028,15.7525982 L60.8979605,15.7525982 L60.8979605,15.7903486 C60.9404297,16.7954523 61.5019665,17.4324899 62.3655063,17.4324899 C63.0214191,17.4324899 63.464986,17.1918313 63.6773318,16.7435456 Z" id="Gender" fill="#0A0830"></path>
                                    </g>
                                </g>
                                <g id="line/list" mask="url(#mask-4)" opacity="0.0599999987" stroke="#2D2B64" stroke-linecap="square" stroke-width="1.23927604">
                                    <g transform="translate(1.238212, 199.352178)" id="Line">
                                        <path d="M0,1.23927604 L219.260287,1.23927604"></path>
                                    </g>
                                </g>
                                <path d="M11.5980947,83.1134537 L12.8037473,83.1134537 C12.8615526,83.5965405 13.3487684,83.9062116 14.0506894,83.9062116 C14.6989341,83.9062116 15.1572472,83.5924116 15.1572472,83.1423563 C15.1572472,82.7624932 14.859963,82.543659 14.1291394,82.386759 L13.3528973,82.2216011 C12.2669842,81.994509 11.73435,81.4288433 11.73435,80.5204749 C11.73435,79.3974012 12.6385894,78.6583197 14.0135289,78.6583197 C15.3265341,78.6583197 16.2555472,79.3932723 16.2927077,80.4544117 L15.1200867,80.4544117 C15.0622814,79.9837117 14.624613,79.6699117 14.0217868,79.6699117 C13.3983157,79.6699117 12.985421,79.958938 12.985421,80.4131222 C12.985421,80.7805985 13.2703184,80.9911748 13.9681104,81.1398169 L14.6865473,81.292588 C15.8839419,81.5444538 16.4000603,82.0605722 16.4000603,82.9854563 C16.4000603,84.18698 15.4793051,84.9219326 13.9846262,84.9219326 C12.5642684,84.9219326 11.6435132,84.2241405 11.5980947,83.1134537 Z M17.558171,79.1331486 L18.7596947,79.1331486 L18.7596947,80.2603512 L19.7052236,80.2603512 L19.7052236,81.2058801 L18.7596947,81.2058801 L18.7596947,83.2538379 C18.7596947,83.6502168 18.9413683,83.8318905 19.3501341,83.8318905 C19.5070341,83.8318905 19.5896131,83.8277616 19.7052236,83.8153747 L19.7052236,84.732001 C19.5565815,84.7609036 19.3336183,84.7856773 19.1023973,84.7856773 C17.9958394,84.7856773 17.558171,84.4264589 17.558171,83.5387353 L17.558171,81.2058801 L16.8479921,81.2058801 L16.8479921,80.2603512 L17.558171,80.2603512 L17.558171,79.1331486 Z M22.3993026,81.0365933 C21.8418947,81.0365933 21.4496448,81.4247143 21.4083553,82.0151538 L23.3489605,82.0151538 C23.3241868,81.4123275 22.9608394,81.0365933 22.3993026,81.0365933 Z M23.3737342,83.4726721 L24.4926789,83.4726721 C24.3151341,84.3273642 23.5265052,84.8682563 22.4116895,84.8682563 C21.0243632,84.8682563 20.2068317,83.9929195 20.2068317,82.5147564 C20.2068317,81.0324643 21.040879,80.115838 22.3951737,80.115838 C23.7370815,80.115838 24.5298394,80.9705301 24.5298394,82.4156616 L24.5298394,82.7831379 L21.4042263,82.7831379 L21.4042263,82.8450721 C21.4207421,83.5222195 21.8171211,83.9433721 22.444721,83.9433721 C22.91955,83.9433721 23.2457368,83.7740853 23.3737342,83.4726721 Z M27.9010658,80.1406117 C29.053042,80.1406117 29.759092,81.0159485 29.759092,82.4899827 C29.759092,83.9598879 29.0612999,84.8393536 27.9217105,84.8393536 C27.2693368,84.8393536 26.7697342,84.5544563 26.5467711,84.0713695 L26.47245,84.0713695 L26.47245,86.2803562 L25.2709264,86.2803562 L25.2709264,80.2149328 L26.4352895,80.2149328 L26.4352895,80.9622722 L26.5096106,80.9622722 C26.7573474,80.4502828 27.2734658,80.1406117 27.9010658,80.1406117 Z M27.4923,83.8360195 C28.1405447,83.8360195 28.5245368,83.3322879 28.5245368,82.4899827 C28.5245368,81.6559353 28.1364158,81.1480748 27.4964289,81.1480748 C26.8564421,81.1480748 26.4600632,81.6600643 26.4600632,82.4941116 C26.4600632,83.328159 26.8564421,83.8360195 27.4923,83.8360195 Z M33.8755344,84.7691615 L33.8755344,80.0250012 L33.8012133,80.0250012 L32.339566,81.0324643 L32.339566,79.8722302 L33.8796633,78.8110907 L35.1224764,78.8110907 L35.1224764,84.7691615 L33.8755344,84.7691615 Z M40.4899898,84.8682563 C39.0902767,84.8682563 38.2479714,83.9805326 38.2479714,82.4899827 C38.2479714,81.0159485 39.1026635,80.115838 40.4899898,80.115838 C41.877316,80.115838 42.7320081,81.0118196 42.7320081,82.4899827 C42.7320081,83.9805326 41.8897029,84.8682563 40.4899898,84.8682563 Z M40.4899898,83.8855668 C41.1299766,83.8855668 41.4974529,83.3735774 41.4974529,82.4899827 C41.4974529,81.6146459 41.1258476,81.0985275 40.4899898,81.0985275 C39.850003,81.0985275 39.4825266,81.6146459 39.4825266,82.4899827 C39.4825266,83.3777063 39.845874,83.8855668 40.4899898,83.8855668 Z M43.8199267,84.7691615 L43.8199267,81.2058801 L43.0849741,81.2058801 L43.0849741,80.2603512 L43.8199267,80.2603512 L43.8199267,79.7979091 C43.8199267,78.8936697 44.2823688,78.4353565 45.3806687,78.4353565 C45.6242766,78.4353565 45.826595,78.4518723 46.0000108,78.4807749 L46.0000108,79.3313381 C45.9215608,79.3230802 45.7976924,79.3106933 45.6407924,79.3106933 C45.1700924,79.3106933 44.9966766,79.496496 44.9966766,79.884617 L44.9966766,80.2603512 L45.9628503,80.2603512 L45.9628503,81.2058801 L45.0214503,81.2058801 L45.0214503,84.7691615 L43.8199267,84.7691615 Z M50.054519,82.1720537 L50.054519,81.2595564 L50.7977294,81.2595564 C51.3633952,81.2595564 51.7473873,80.9251117 51.7473873,80.4378959 C51.7473873,79.9919696 51.3964268,79.653396 50.8142452,79.653396 C50.2114189,79.653396 49.8398137,79.963067 49.7985242,80.4957012 L48.646548,80.4957012 C48.6878374,79.3974012 49.5342716,78.6583197 50.8761794,78.6583197 C52.1974426,78.6583197 52.9323952,79.3891433 52.9282662,80.2603512 C52.9241373,80.982917 52.4699531,81.4577459 51.8299663,81.6146459 L51.8299663,81.6930959 C52.6598846,81.8128353 53.1636162,82.3413406 53.1636162,83.1382274 C53.1636162,84.182851 52.1809268,84.9219326 50.83489,84.9219326 C49.4888532,84.9219326 48.5722269,84.18698 48.5185506,83.0597774 L49.7118163,83.0597774 C49.7489769,83.563509 50.1783874,83.8855668 50.8183742,83.8855668 C51.4501031,83.8855668 51.8919005,83.5428642 51.8919005,83.0267458 C51.8919005,82.4982406 51.4790057,82.1720537 50.8101163,82.1720537 L50.054519,82.1720537 Z" id="Step-1-of-3" fill="#0A0830" opacity="0.24" mask="url(#mask-4)"></path>
                                <g id="button" mask="url(#mask-4)">
                                    <g transform="translate(11.350279, 363.208936)">
                                        <rect id="button-bg" fill="#2D2B64" opacity="0.08" x="0" y="0" width="198.113965" height="26.5762636" rx="3.62403595"></rect>
                                        <path d="M89.7029708,16.4560839 L88.509705,16.4560839 L88.509705,10.4980131 L89.5501997,10.4980131 L92.2918207,14.2099366 L92.3661417,14.2099366 L92.3661417,10.4980131 L93.5594074,10.4980131 L93.5594074,16.4560839 L92.5271706,16.4560839 L89.7772918,12.7276446 L89.7029708,12.7276446 L89.7029708,16.4560839 Z M98.7102101,15.3908155 L98.7102101,16.4560839 L94.7629365,16.4560839 L94.7629365,10.4980131 L98.7102101,10.4980131 L98.7102101,11.5632814 L96.0098786,11.5632814 L96.0098786,12.9547367 L98.557439,12.9547367 L98.557439,13.941555 L96.0098786,13.941555 L96.0098786,15.3908155 L98.7102101,15.3908155 Z M99.4223945,16.4560839 L101.325839,13.4543393 L99.4347813,10.4980131 L100.900558,10.4980131 L102.143371,12.5831314 L102.217692,12.5831314 L103.472892,10.4980131 L104.868476,10.4980131 L102.907226,13.474984 L104.839573,16.4560839 L103.419215,16.4560839 L102.139242,14.4370287 L102.064921,14.4370287 L100.768431,16.4560839 L99.4223945,16.4560839 Z M108.400731,16.4560839 L107.153789,16.4560839 L107.153789,11.5632814 L105.365955,11.5632814 L105.365955,10.4980131 L110.188565,10.4980131 L110.188565,11.5632814 L108.400731,11.5632814 L108.400731,16.4560839 Z" id="SAMPLE" fill="#918FA8"></path>
                                    </g>
                                </g>
                                <g id="app-bar+status-bar" mask="url(#mask-4)">
                                    <g transform="translate(1.238212, 0.000000)">
                                        <g id="bg-app-bar">
                                            <use fill="black" fill-opacity="1" filter="url(#filter-14)" xlink:href="#path-13"></use>
                                            <use fill="#2D2B64" fill-rule="evenodd" xlink:href="#path-13"></use>
                                        </g>
                                        <g id="app-bar-content" stroke-width="1" fill-rule="evenodd" transform="translate(0.000000, 14.610905)"></g>
                                        <g id="bar/table-content" stroke-width="1" fill-rule="evenodd" transform="translate(0.000000, 14.610905)">
                                            <rect id="bg" fill="#2D2B64" x="0" y="0" width="219.163574" height="36.5272623"></rect>
                                            <g id="icon-chevron" transform="translate(9.740603, 10.349391)">
                                                <rect id="bound" fill="#D8D8D8" opacity="0" x="0" y="0" width="14.6109049" height="14.6109049"></rect>
                                                <path d="M10.088482,3.00335268 L10.088482,3.00335268 C9.74567956,2.68340375 9.213709,2.68340375 8.87090657,3.00335268 L5.40594741,6.23731457 C4.81603113,6.78790309 4.78414969,7.7124649 5.33473821,8.30238118 C5.35764931,8.32692878 5.38139981,8.35067928 5.40594741,8.37359037 L8.87090657,11.6075523 C9.213709,11.9275012 9.74567956,11.9275012 10.088482,11.6075523 L10.088482,11.6075523 C10.4022912,11.3146637 10.4192507,10.8228379 10.1263621,10.5090287 C10.1141744,10.4959704 10.1015402,10.4833362 10.088482,10.4711485 L7.07814259,7.66149844 C6.88150383,7.47796893 6.87087668,7.16978166 7.05440619,6.9731429 C7.06204322,6.96496037 7.06996005,6.95704353 7.07814259,6.9494065 L10.088482,4.1397564 C10.4022912,3.84686779 10.4192507,3.35504203 10.1263621,3.04123281 C10.1141744,3.02817457 10.1015402,3.01554036 10.088482,3.00335268 Z" id="chevron" fill="#F7F6FF"></path>
                                            </g>
                                            <path d="M44.8731235,13.7704783 L48.4521293,13.7704783 C50.2178515,13.7704783 51.4247256,14.9535716 51.4247256,16.7371293 C51.4247256,18.5028515 50.17029,19.6859448 48.3629515,19.6859448 L46.6685716,19.6859448 L46.6685716,22.349391 L44.8731235,22.349391 L44.8731235,13.7704783 Z M46.6685716,15.244886 L46.6685716,18.2293726 L47.9705688,18.2293726 C48.999087,18.2293726 49.5995515,17.7061957 49.5995515,16.7430745 C49.5995515,15.768063 49.0109774,15.244886 47.9765139,15.244886 L46.6685716,15.244886 Z M52.5398058,22.349391 L52.5398058,15.7918437 L54.2163501,15.7918437 L54.2163501,16.8381976 L54.3233636,16.8381976 C54.4957741,16.1842264 55.1735261,15.6848303 56.005853,15.6848303 C56.2436607,15.6848303 56.5349752,15.7145562 56.683605,15.768063 L56.683605,17.343539 C56.5468655,17.2900322 56.1425925,17.2365255 55.8631684,17.2365255 C54.9178828,17.2365255 54.2698568,17.7953736 54.2698568,18.7168784 L54.2698568,22.349391 L52.5398058,22.349391 Z M60.230269,22.4920756 C58.2148487,22.4920756 57.0020295,21.2138592 57.0020295,19.0676448 C57.0020295,16.9452111 58.2326843,15.6491591 60.230269,15.6491591 C62.2278536,15.6491591 63.4585084,16.9392659 63.4585084,19.0676448 C63.4585084,21.2138592 62.2456892,22.4920756 60.230269,22.4920756 Z M60.230269,21.0771198 C61.1517738,21.0771198 61.6808959,20.339916 61.6808959,19.0676448 C61.6808959,17.807264 61.1458286,17.0641149 60.230269,17.0641149 C59.3087641,17.0641149 58.779642,17.807264 58.779642,19.0676448 C58.779642,20.3458611 59.3028189,21.0771198 60.230269,21.0771198 Z M65.0075878,22.349391 L65.0075878,17.2186899 L63.9493435,17.2186899 L63.9493435,15.8572409 L65.0075878,15.8572409 L65.0075878,15.1913793 C65.0075878,13.8893822 65.6734493,13.2294658 67.2548705,13.2294658 C67.6056369,13.2294658 67.8969513,13.2532466 68.1466494,13.2948629 L68.1466494,14.5195726 C68.0336907,14.5076822 67.8553349,14.4898466 67.6294176,14.4898466 C66.9516657,14.4898466 66.7019676,14.7573803 66.7019676,15.3162283 L66.7019676,15.8572409 L68.0931426,15.8572409 L68.0931426,17.2186899 L66.7376388,17.2186899 L66.7376388,22.349391 L65.0075878,22.349391 Z M69.119045,22.349391 L69.119045,15.7918437 L70.849096,15.7918437 L70.849096,22.349391 L69.119045,22.349391 Z M69.9870431,14.810887 C69.4519758,14.810887 69.0060864,14.3709427 69.0060864,13.8180398 C69.0060864,13.265137 69.4519758,12.8311379 69.9870431,12.8311379 C70.5280556,12.8311379 70.9679999,13.265137 70.9679999,13.8180398 C70.9679999,14.3709427 70.5280556,14.810887 69.9870431,14.810887 Z M72.2911619,22.349391 L72.2911619,13.2889177 L74.0212129,13.2889177 L74.0212129,22.349391 L72.2911619,22.349391 Z M78.2872452,16.974937 C77.4846442,16.974937 76.9198509,17.5337851 76.860399,18.3839476 L79.6546394,18.3839476 C79.6189683,17.5159495 79.0957913,16.974937 78.2872452,16.974937 Z M79.6903106,20.4826006 L81.3014577,20.4826006 C81.0458145,21.7132554 79.9102827,22.4920756 78.3050807,22.4920756 C76.3074961,22.4920756 75.130348,21.2316948 75.130348,19.1033159 C75.130348,16.9689918 76.3312769,15.6491591 78.2813,15.6491591 C80.2134875,15.6491591 81.3549645,16.879814 81.3549645,18.9606313 L81.3549645,19.4897534 L76.8544538,19.4897534 L76.8544538,19.5789313 C76.8782346,20.5539429 77.448973,21.1603525 78.3526423,21.1603525 C79.0363394,21.1603525 79.5060096,20.9165996 79.6903106,20.4826006 Z M84.9644097,19.9653688 L86.7004059,19.9653688 C86.7836385,20.6609563 87.4851713,21.1068458 88.495854,21.1068458 C89.4292492,21.1068458 90.0891655,20.6550112 90.0891655,20.0069852 C90.0891655,19.4600275 89.6611117,19.1449323 88.6088126,18.919015 L87.4911164,18.6812073 C85.9275308,18.3542217 85.160601,17.5397303 85.160601,16.231788 C85.160601,14.6146956 86.4625982,13.5505062 88.4423472,13.5505062 C90.3329184,13.5505062 91.6705867,14.6087504 91.7240935,16.1366649 L90.0356588,16.1366649 C89.9524261,15.458913 89.3222357,15.0070783 88.4542376,15.0070783 C87.5565136,15.0070783 86.9619943,15.4232418 86.9619943,16.077213 C86.9619943,16.6063351 87.3722126,16.9095399 88.3769501,17.1235668 L89.4114136,17.343539 C91.1355194,17.7061957 91.8786685,18.4493448 91.8786685,19.7810679 C91.8786685,21.5111189 90.5528906,22.5693631 88.4007309,22.5693631 C86.3555847,22.5693631 85.0298068,21.5646256 84.9644097,19.9653688 Z M95.8712219,16.974937 C95.0686209,16.974937 94.5038276,17.5337851 94.4443757,18.3839476 L97.2386161,18.3839476 C97.202945,17.5159495 96.6797681,16.974937 95.8712219,16.974937 Z M97.2742873,20.4826006 L98.8854345,20.4826006 C98.6297912,21.7132554 97.4942594,22.4920756 95.8890575,22.4920756 C93.8914728,22.4920756 92.7143247,21.2316948 92.7143247,19.1033159 C92.7143247,16.9689918 93.9152536,15.6491591 95.8652767,15.6491591 C97.7974642,15.6491591 98.9389412,16.879814 98.9389412,18.9606313 L98.9389412,19.4897534 L94.4384305,19.4897534 L94.4384305,19.5789313 C94.4622113,20.5539429 95.0329498,21.1603525 95.936619,21.1603525 C96.6203161,21.1603525 97.0899863,20.9165996 97.2742873,20.4826006 Z M100.482075,14.2342033 L102.212126,14.2342033 L102.212126,15.8572409 L103.573575,15.8572409 L103.573575,17.2186899 L102.212126,17.2186899 L102.212126,20.1675054 C102.212126,20.7382438 102.473715,20.9998323 103.062289,20.9998323 C103.288206,20.9998323 103.40711,20.9938871 103.573575,20.9760515 L103.573575,22.2958843 C103.359548,22.3375006 103.038508,22.3731718 102.705577,22.3731718 C101.112266,22.3731718 100.482075,21.85594 100.482075,20.5777237 L100.482075,17.2186899 L99.4595022,17.2186899 L99.4595022,15.8572409 L100.482075,15.8572409 L100.482075,14.2342033 Z M110.580341,15.7918437 L110.580341,22.349391 L108.903797,22.349391 L108.903797,21.2970919 L108.796784,21.2970919 C108.487634,22.0580766 107.875279,22.4920756 106.882432,22.4920756 C105.467476,22.4920756 104.587587,21.5884064 104.587587,20.0664371 L104.587587,15.7918437 L106.317638,15.7918437 L106.317638,19.6205477 C106.317638,20.5242169 106.727857,20.9879419 107.524512,20.9879419 C108.386565,20.9879419 108.85029,20.4469294 108.85029,19.5729861 L108.85029,15.7918437 L110.580341,15.7918437 Z M115.738153,15.6848303 C117.396861,15.6848303 118.413489,16.9452111 118.413489,19.0676448 C118.413489,21.1841333 117.408752,22.4504593 115.767878,22.4504593 C114.828538,22.4504593 114.10917,22.040241 113.788129,21.3446535 L113.681116,21.3446535 L113.681116,24.5253314 L111.951065,24.5253314 L111.951065,15.7918437 L113.627609,15.7918437 L113.627609,16.8679236 L113.734623,16.8679236 C114.091334,16.1307197 114.834483,15.6848303 115.738153,15.6848303 Z M115.149578,21.0057775 C116.082974,21.0057775 116.635877,20.280464 116.635877,19.0676448 C116.635877,17.8667159 116.077028,17.1354572 115.155524,17.1354572 C114.234019,17.1354572 113.66328,17.8726611 113.66328,19.07359 C113.66328,20.2745188 114.234019,21.0057775 115.149578,21.0057775 Z" id="Allergies" fill="#FFFFFF"></path>
                                        </g>
                                        <g id="status-bar" stroke-width="1" fill-rule="evenodd">
                                            <rect id="status-bar-bg" fill="#2D2B64" x="0" y="0" width="219.163574" height="14.6109049"></rect>
                                            <path d="M189.496257,12.1510445 L188.487753,12.1510445 L188.487753,7.27938391 L187,7.78780358 L187,6.93349185 L189.367069,6.06251061 L189.496257,6.06251061 L189.496257,12.1510445 Z M195.684808,12.1510445 L191.604949,12.1510445 L191.604949,11.455093 L193.626125,9.25055196 C193.917843,8.92549514 194.125515,8.65392397 194.249148,8.43583029 C194.37278,8.21773661 194.434596,7.99895164 194.434596,7.77946883 C194.434596,7.49052943 194.353333,7.25715881 194.190804,7.07934995 C194.028276,6.90154109 193.809491,6.81263799 193.534443,6.81263799 C193.206608,6.81263799 192.952401,6.91265397 192.771813,7.11268894 C192.591226,7.31272391 192.500934,7.58637875 192.500934,7.93366168 L191.488262,7.93366168 C191.488262,7.56415264 191.572303,7.23146059 191.740388,6.93557553 C191.908473,6.63969048 192.148789,6.40979263 192.461344,6.24587508 C192.773899,6.08195754 193.134373,6 193.542778,6 C194.13177,6 194.596427,6.14794031 194.936764,6.44382536 C195.277102,6.73971042 195.447268,7.14880357 195.447268,7.6711171 C195.447268,7.97394781 195.361837,8.29135965 195.190974,8.62336213 C195.020111,8.95536461 194.740205,9.33250821 194.351248,9.75480426 L192.867663,11.3425739 L195.684808,11.3425739 L195.684808,12.1510445 Z M197.130887,11.0841967 C197.319809,11.0841967 197.465666,11.1376774 197.568461,11.2446406 C197.671257,11.3516037 197.722654,11.4856529 197.722654,11.6467922 C197.722654,11.8051532 197.671257,11.9364242 197.568461,12.0406091 C197.465666,12.1447939 197.319809,12.1968856 197.130887,12.1968856 C196.9503,12.1968856 196.807221,12.1454885 196.701647,12.0426928 C196.596073,11.939897 196.543287,11.8079315 196.543287,11.6467922 C196.543287,11.4856529 196.594684,11.3516037 196.69748,11.2446406 C196.800276,11.1376774 196.944743,11.0841967 197.130887,11.0841967 Z M197.130887,7.54609587 C197.319809,7.54609587 197.465666,7.59957664 197.568461,7.70653978 C197.671257,7.81350292 197.722654,7.94755212 197.722654,8.1086914 C197.722654,8.26705242 197.671257,8.3983234 197.568461,8.50250827 C197.465666,8.60669315 197.319809,8.65878481 197.130887,8.65878481 C196.9503,8.65878481 196.807221,8.60738771 196.701647,8.50459196 C196.596073,8.40179621 196.543287,8.26983068 196.543287,8.1086914 C196.543287,7.94755212 196.594684,7.81350292 196.69748,7.70653978 C196.800276,7.59957664 196.944743,7.54609587 197.130887,7.54609587 Z M199.889689,8.65461744 L200.50646,8.65461744 C200.817626,8.65183917 201.064193,8.57127074 201.246169,8.41290973 C201.428145,8.25454871 201.519132,8.02534542 201.519132,7.72529297 C201.519132,7.43635357 201.443426,7.21201216 201.29201,7.05226201 C201.140595,6.89251187 200.909308,6.81263799 200.598142,6.81263799 C200.325873,6.81263799 200.102226,6.89112276 199.927195,7.04809464 C199.752165,7.20506652 199.664651,7.40996038 199.664651,7.66278235 L198.651979,7.66278235 C198.651979,7.35161685 198.734631,7.06823823 198.899937,6.81263799 C199.065244,6.55703776 199.295836,6.35770034 199.591721,6.21461978 C199.887607,6.07153921 200.218909,6 200.58564,6 C201.191302,6 201.667072,6.15210764 202.012966,6.45632749 C202.35886,6.76054733 202.531804,7.1835316 202.531804,7.72529297 C202.531804,7.99756278 202.444985,8.25385374 202.271343,8.49417353 C202.097702,8.73449331 201.87336,8.91577228 201.598312,9.03801587 C201.931704,9.15192467 202.185217,9.33111998 202.358858,9.57560716 C202.532499,9.82009434 202.619319,10.1118076 202.619319,10.4507558 C202.619319,10.9952954 202.432484,11.428698 202.058807,11.7509766 C201.685131,12.0732551 201.19408,12.234392 200.58564,12.234392 C200.002205,12.234392 199.524351,12.0788116 199.152063,11.767646 C198.779776,11.4564805 198.593635,11.0425255 198.593635,10.5257685 L199.606307,10.5257685 C199.606307,10.7924818 199.695905,11.0091831 199.875103,11.1758789 C200.054301,11.3425747 200.295312,11.4259214 200.598142,11.4259214 C200.912086,11.4259214 201.159348,11.3425747 201.339935,11.1758789 C201.520522,11.0091831 201.610814,10.7674778 201.610814,10.4507558 C201.610814,10.1312555 201.516355,9.88538285 201.327433,9.71313051 C201.138511,9.54087818 200.857911,9.45475331 200.485623,9.45475331 L199.889689,9.45475331 L199.889689,8.65461744 Z M207.524318,9.59644403 C207.524318,10.4688187 207.361098,11.1265628 207.034652,11.5696958 C206.708206,12.0128288 206.211599,12.234392 205.544816,12.234392 C204.889146,12.234392 204.395317,12.0183852 204.063314,11.5863653 C203.731312,11.1543453 203.561146,10.5146597 203.552811,9.6672894 L203.552811,8.61711107 C203.552811,7.74473635 203.716031,7.09046513 204.042477,6.65427777 C204.368923,6.21809041 204.866919,6 205.536481,6 C206.200486,6 206.695704,6.21253396 207.02215,6.63760827 C207.348596,7.06268258 207.515984,7.69889536 207.524318,8.54626571 L207.524318,9.59644403 Z M206.511647,8.46291822 C206.511647,7.89337422 206.433856,7.4759464 206.278274,7.21062224 C206.122691,6.94529808 205.875429,6.81263799 205.536481,6.81263799 C205.205868,6.81263799 204.962773,6.93835253 204.80719,7.18978537 C204.651608,7.44121821 204.56965,7.83364203 204.561315,8.36706861 L204.561315,9.74230213 C204.561315,10.3090679 204.640495,10.7313576 204.798856,11.0091839 C204.957217,11.2870103 205.205868,11.4259214 205.544816,11.4259214 C205.869873,11.4259214 206.110189,11.2974286 206.265771,11.0404392 C206.421354,10.7834499 206.503312,10.3813023 206.511647,9.83398437 L206.511647,8.46291822 Z" id="12:30" fill="#FFFFFF"></path>
                                            <g id="battery" transform="translate(176.000000, 4.000000)">
                                                <polygon id="bounds" points="2 0 11.7540372 0 11.7540372 9.75403725 2 9.75403725"></polygon>
                                                <polygon id="Shape" fill="#FFFFFF" points="4.48664595 1.14305124 4.48664595 0.609627328 2.65776397 0.609627328 2.65776397 1.14305124 0.828881984 1.14305124 0.828881984 9.14440992 6.31552794 9.14440992 6.31552794 1.14305124"></polygon>
                                            </g>
                                            <g id="cellular" transform="translate(163.000000, 4.000000)">
                                                <polygon id="bounds" points="0 0 9.75403725 0 9.75403725 9.75403725 0 9.75403725"></polygon>
                                                <polygon id="Shape" fill="#FFFFFF" points="0 9.14440992 8.53478259 9.14440992 8.53478259 0.609627328"></polygon>
                                            </g>
                                            <g id="wifi" transform="translate(150.000000, 4.000000)">
                                                <polygon id="bounds" points="1.21925466 0 10.9732919 0 10.9732919 9.75403725 1.21925466 9.75403725"></polygon>
                                                <path d="M0.595832733,2.44822143 C2.12651368,1.29397291 4.03147474,0.609627328 6.09627328,0.609627328 C8.16107182,0.609627328 10.0660329,1.29397291 11.5967138,2.44822143 L6.09627328,9.14440992 L0.595832733,2.44822143 Z" id="Shape" fill="#FFFFFF"></path>
                                            </g>
                                        </g>
                                    </g>
                                </g>
                            </g>
                        </g>
                        <g id="Below-the-Display" transform="translate(4.420713, 8.008749)" fill="#8F8F8F" opacity="0.0199999996">
                            <path d="M230.382962,465.559447 L230.382962,469.735778 C230.382962,479.828318 222.193171,488.009938 212.090553,488.009938 L18.3709397,488.009938 C8.26832104,488.009938 0.0785304365,479.828318 0.0785304365,469.735778 L0.0785304365,465.559447 C1.63874474,474.070329 9.10088978,480.520528 18.0710642,480.520528 L212.390428,480.520528 C221.360603,480.520528 228.822748,474.070329 230.382962,465.559447 Z" id="Bottom-Curve-Highlight" filter="url(#filter-15)"></path>
                        </g>
                    </g>
                </g>
            </g>
        </g>
    </g>
</svg>